<svg width="31" height="30" viewBox="0 0 31 30" fill="none" xmlns="http://www.w3.org/2000/svg">
<path d="M11.1502 0.899963C11.0302 0.974964 10.5352 1.79996 10.0252 2.72996L9.1252 4.42496L7.4902 5.26496C6.5902 5.72996 5.7652 6.23996 5.6452 6.38996C5.3452 6.80996 5.4052 7.28996 6.0052 9.07496L6.5452 10.71L6.0052 12.375C5.6902 13.29 5.4502 14.205 5.4502 14.415C5.4502 15.045 5.8552 15.42 7.5202 16.275L9.1252 17.1L9.8752 18.555C10.9102 20.565 11.0302 20.7 11.8102 20.7C12.1552 20.7 13.1302 20.475 13.9552 20.19L15.4852 19.68L17.2702 20.25C19.0102 20.82 19.5052 20.865 19.9702 20.505C20.0902 20.415 20.5402 19.605 20.9902 18.72L21.8002 17.1L23.3452 16.335C24.1852 15.915 24.9952 15.465 25.1302 15.345C25.6252 14.91 25.5952 14.34 25.0252 12.465L24.4702 10.695L25.0102 9.05996C25.6252 7.21496 25.6702 6.76496 25.2952 6.32996C25.1452 6.14996 24.3052 5.63996 23.4352 5.17496L21.8452 4.34996L20.9902 2.69996C20.5102 1.78496 20.0002 0.989964 19.8502 0.899963C19.3702 0.644964 18.7702 0.734964 17.1502 1.27496L15.5752 1.79996L13.8952 1.27496C12.1852 0.734964 11.5402 0.644964 11.1502 0.899963ZM17.9452 5.60996C21.1102 7.15496 22.1452 11.13 20.1352 14.04C18.7402 16.065 15.8152 16.965 13.5052 16.065C9.2002 14.385 8.5102 8.68496 12.2902 6.05996C13.4002 5.29496 14.1502 5.09996 15.7402 5.14496C16.8652 5.17496 17.2402 5.24996 17.9452 5.60996Z" fill="#00A86B"/>
<path d="M14.9 6.86993C14.9 7.19993 14.795 7.34993 14.375 7.54493C13.325 8.03993 12.935 9.44993 13.55 10.4699C13.91 11.0399 14.645 11.3999 15.47 11.3999C16.085 11.3999 16.55 11.7449 16.55 12.1949C16.55 12.8399 14.915 13.1849 14.6 12.5999C14.48 12.3749 14.285 12.2999 13.85 12.2999C13.31 12.2999 13.25 12.3299 13.25 12.6899C13.25 13.1249 14.12 14.0999 14.495 14.0999C14.645 14.0999 14.75 14.2649 14.78 14.5799C14.825 15.0449 14.87 15.0749 15.47 15.1199C16.1 15.1649 16.1 15.1649 16.1 14.6549C16.1 14.2349 16.175 14.1149 16.445 14.0399C16.625 13.9949 16.985 13.7549 17.21 13.5149C17.555 13.1549 17.66 12.8849 17.705 12.2699C17.81 10.9049 16.97 10.0499 15.515 10.0499C14.945 10.0499 14.45 9.76493 14.45 9.43493C14.45 8.68493 15.56 8.30993 16.25 8.83493C16.505 9.01493 16.91 9.14993 17.24 9.14993C17.78 9.14993 17.78 9.13493 17.69 8.66993C17.57 8.05493 17.09 7.54493 16.535 7.42493C16.175 7.34993 16.1 7.24493 16.1 6.88493C16.1 6.47993 16.07 6.44993 15.5 6.44993C14.945 6.44993 14.9 6.47993 14.9 6.86993Z" fill="#00A86B"/>
<path d="M5.7052 21.765C4.7452 23.82 3.9502 25.635 3.9502 25.785C3.9502 25.935 4.0852 26.175 4.2352 26.31C4.5052 26.55 4.6102 26.55 6.2152 26.265C7.1452 26.085 8.0152 25.95 8.1502 25.95C8.2852 25.95 8.6452 26.46 9.0352 27.195C10.0252 29.025 10.2052 29.25 10.7002 29.25C11.0002 29.25 11.2102 29.13 11.3602 28.905C11.7502 28.29 14.7952 21.75 14.7202 21.675C14.6902 21.63 14.1502 21.78 13.5352 21.99C12.0952 22.485 11.1052 22.44 10.2202 21.81C9.7702 21.48 9.4102 21 8.81019 19.875C8.0152 18.36 7.7752 18 7.5802 18C7.5202 18 6.6802 19.695 5.7052 21.765Z" fill="#00A86B"/>
<path d="M23.1802 18.105C23.0752 18.15 22.6252 18.915 22.1752 19.815C21.5002 21.135 21.2302 21.525 20.7352 21.855C19.8652 22.425 18.8752 22.47 17.4652 21.99C16.8502 21.78 16.3102 21.63 16.2802 21.675C16.1752 21.765 19.5652 28.92 19.7902 29.115C19.8952 29.205 20.1652 29.25 20.4052 29.22C20.7652 29.175 20.9452 28.95 21.6802 27.675C22.1602 26.85 22.5652 26.115 22.5952 26.025C22.6252 25.935 23.3902 26.01 24.5602 26.235C26.4052 26.565 26.4802 26.565 26.7652 26.31C26.9452 26.16 27.0502 25.89 27.0202 25.695C26.9752 25.32 23.5702 18 23.4502 18.015C23.4052 18.015 23.2852 18.06 23.1802 18.105Z" fill="#00A86B"/>
</svg>
