<svg width="87" height="38" viewBox="0 0 87 38" fill="none" xmlns="http://www.w3.org/2000/svg">
<path d="M5.97072 21.4622L5.72866 22.2422H10.8387L10.5967 21.4353C9.98705 19.4989 9.48501 17.8762 9.09055 16.5673C8.71402 15.2405 8.48093 14.4067 8.39128 14.066L8.2837 13.5281C8.12233 14.4246 7.35133 17.0693 5.97072 21.4622ZM3.55016 29.1273H0L6.13209 11H10.516L16.6481 29.1273H12.9903L11.6994 25.0124H4.84112L3.55016 29.1273Z" fill="#00A86B"/>
<path d="M28.9883 28.5356C28.038 29.0915 26.8546 29.3694 25.4382 29.3694C23.3403 29.3694 21.637 28.706 20.3281 27.3791C19.0371 26.0523 18.3916 24.3758 18.3916 22.3497C18.4096 20.3595 19.0551 18.683 20.3281 17.3204C21.6191 15.9577 23.3762 15.2763 25.5995 15.2763C26.9264 15.2763 28.056 15.5273 28.9883 16.0294V18.8803C28.0918 18.3065 27.0698 18.0196 25.9223 18.0196C24.6672 18.0196 23.6541 18.4141 22.8831 19.203C22.1121 19.9919 21.7177 21.0408 21.6997 22.3497C21.7356 23.6407 22.1211 24.6807 22.8562 25.4696C23.6093 26.2585 24.6223 26.653 25.8954 26.653C27.007 26.653 28.038 26.3482 28.9883 25.7385V28.5356Z" fill="#00A86B"/>
<path d="M41.6217 28.5356C40.6714 29.0915 39.488 29.3694 38.0715 29.3694C35.9737 29.3694 34.2703 28.706 32.9614 27.3791C31.6705 26.0523 31.025 24.3758 31.025 22.3497C31.0429 20.3595 31.6884 18.683 32.9614 17.3204C34.2524 15.9577 36.0096 15.2763 38.2329 15.2763C39.5597 15.2763 40.6893 15.5273 41.6217 16.0294V18.8803C40.7252 18.3065 39.7032 18.0196 38.5556 18.0196C37.3005 18.0196 36.2875 18.4141 35.5165 19.203C34.7455 19.9919 34.351 21.0408 34.3331 22.3497C34.369 23.6407 34.7544 24.6807 35.4896 25.4696C36.2426 26.2585 37.2557 26.653 38.5287 26.653C39.6404 26.653 40.6714 26.3482 41.6217 25.7385V28.5356Z" fill="#00A86B"/>
<path d="M54.7929 28.3743C53.8426 28.9659 52.471 29.2618 50.678 29.2618C48.5084 29.2618 46.7961 28.6163 45.541 27.3253C44.2859 26.0344 43.6583 24.3669 43.6583 22.3228C43.6583 20.1533 44.25 18.4499 45.4334 17.2128C46.6168 15.9756 48.096 15.357 49.8711 15.357C51.6462 15.357 53.0537 15.8949 54.0936 16.9707C55.1336 18.0465 55.6536 19.6154 55.6536 21.6774C55.6536 22.1794 55.5908 22.8249 55.4653 23.6138H46.9127C47.1457 24.6 47.6299 25.353 48.365 25.873C49.1181 26.393 50.0504 26.653 51.1621 26.653C52.5965 26.653 53.8068 26.2944 54.7929 25.5772V28.3743ZM49.9518 17.8852C49.1808 17.8852 48.5084 18.172 47.9347 18.7458C47.3788 19.3016 47.0202 20.1174 46.8589 21.1933H52.5875V20.7898C52.5517 19.9113 52.3096 19.212 51.8614 18.692C51.431 18.1541 50.7945 17.8852 49.9518 17.8852Z" fill="black"/>
<path d="M67.5223 25.2006C67.5223 26.4737 67.0651 27.4688 66.1507 28.186C65.2362 28.9032 64.017 29.2618 62.4929 29.2618C60.8075 29.2618 59.4448 28.9839 58.4049 28.428V25.4696C59.6062 26.2764 60.9061 26.6799 62.3046 26.6799C62.8963 26.6799 63.3536 26.5723 63.6763 26.3571C64.017 26.124 64.1873 25.8102 64.1873 25.4158C64.1873 25.1827 64.1335 24.9765 64.0259 24.7972C63.9184 24.6 63.7122 24.4117 63.4073 24.2324C63.1025 24.0531 62.8605 23.9276 62.6812 23.8559C62.5198 23.7662 62.1881 23.6138 61.6861 23.3987C61.6323 23.3807 61.5874 23.3628 61.5516 23.3449C61.5337 23.3269 61.4978 23.309 61.444 23.2911C61.3902 23.2731 61.3454 23.2552 61.3095 23.2373C59.3193 22.3408 58.3242 21.0498 58.3242 19.3644C58.3242 18.1093 58.7993 17.1231 59.7496 16.4059C60.6999 15.6887 61.8923 15.3301 63.3267 15.3301C64.7073 15.3301 65.8548 15.5273 66.7692 15.9218V18.7727C65.8727 18.2348 64.7521 17.9658 63.4073 17.9658C62.8515 17.9658 62.4122 18.0913 62.0895 18.3424C61.7847 18.5755 61.6323 18.8803 61.6323 19.2568C61.6323 19.4002 61.6502 19.5347 61.6861 19.6602C61.7398 19.7857 61.8205 19.9112 61.9281 20.0368C62.0536 20.1443 62.1702 20.243 62.2778 20.3326C62.3853 20.4223 62.5377 20.5209 62.735 20.6285C62.9322 20.7181 63.1025 20.7988 63.246 20.8705C63.3894 20.9422 63.5866 21.0319 63.8377 21.1395C64.0887 21.247 64.2859 21.3367 64.4294 21.4084C65.3797 21.8746 66.1327 22.3946 66.6886 22.9683C67.2444 23.5421 67.5223 24.2862 67.5223 25.2006Z" fill="black"/>
<path d="M79 25.2006C79 26.4737 78.5428 27.4688 77.6283 28.186C76.7139 28.9032 75.4947 29.2618 73.9706 29.2618C72.2852 29.2618 70.9225 28.9839 69.8826 28.428V25.4696C71.0839 26.2764 72.3838 26.6799 73.7823 26.6799C74.374 26.6799 74.8313 26.5723 75.154 26.3571C75.4947 26.124 75.665 25.8102 75.665 25.4158C75.665 25.1827 75.6112 24.9765 75.5036 24.7972C75.396 24.6 75.1899 24.4117 74.885 24.2324C74.5802 24.0531 74.3382 23.9276 74.1589 23.8559C73.9975 23.7662 73.6658 23.6138 73.1638 23.3987C73.11 23.3807 73.0651 23.3628 73.0293 23.3449C73.0114 23.3269 72.9755 23.309 72.9217 23.2911C72.8679 23.2731 72.8231 23.2552 72.7872 23.2373C70.797 22.3408 69.8019 21.0498 69.8019 19.3644C69.8019 18.1093 70.277 17.1231 71.2273 16.4059C72.1776 15.6887 73.37 15.3301 74.8044 15.3301C76.185 15.3301 77.3325 15.5273 78.2469 15.9218V18.7727C77.3504 18.2348 76.2298 17.9658 74.885 17.9658C74.3292 17.9658 73.8899 18.0913 73.5672 18.3424C73.2624 18.5755 73.11 18.8803 73.11 19.2568C73.11 19.4002 73.1279 19.5347 73.1638 19.6602C73.2175 19.7857 73.2982 19.9112 73.4058 20.0368C73.5313 20.1443 73.6479 20.243 73.7555 20.3326C73.863 20.4223 74.0154 20.5209 74.2127 20.6285C74.4099 20.7181 74.5802 20.7988 74.7237 20.8705C74.8671 20.9422 75.0643 21.0319 75.3154 21.1395C75.5664 21.247 75.7636 21.3367 75.9071 21.4084C76.8574 21.8746 77.6104 22.3946 78.1663 22.9683C78.7221 23.5421 79 24.2862 79 25.2006Z" fill="black"/>
<path fill-rule="evenodd" clip-rule="evenodd" d="M37.0775 5H87V38H8V36.1667H85.0494V6.83333H37.0775V5Z" fill="black"/>
<rect x="32" width="4" height="4" fill="black"/>
<rect x="30" y="6" width="4" height="4" fill="black"/>
<rect x="26" y="1" width="4" height="4" fill="black"/>
<rect x="22" y="1" width="2" height="2" fill="black"/>
</svg>
