<svg width="945" height="1267" viewBox="0 0 945 1267" fill="none" xmlns="http://www.w3.org/2000/svg">
<g opacity="0.15">
<path d="M170.005 433.718C172.91 453.056 177.548 471.894 183.77 488.901C187.104 498.136 191.422 507.166 196.592 515.713C201.045 523.268 205.086 531.202 209.001 538.865C212.338 545.411 215.794 552.175 219.506 558.717C228.78 575.029 233.947 591.081 237.208 612.622L237.468 614.353C238.398 620.544 239.078 625.068 237.696 630.519C232.476 651.732 229.5 674.398 228.819 698.115C227.332 745.909 242.523 791.559 271.592 826.643C307.339 869.789 341.863 888.779 362.255 892.165C366.69 892.899 371.29 893.425 376.176 893.982C399.391 896.631 425.704 899.626 443.253 927.359C447.93 934.758 451.937 942.696 455.813 950.383C462.231 963.13 468.877 976.309 478.818 987.464C504.295 1016.07 542.254 1025.79 563.433 1009.14L564.157 1008.57C576.509 998.866 590.518 987.869 594.658 969.377C594.893 968.387 595.095 967.288 595.313 966.243C595.789 963.607 596.419 961.069 597.2 958.642C599.989 950.689 607.954 938.811 615.689 937.211C621.835 935.931 629.245 937.391 636.399 938.795C649.494 941.361 663.029 944.017 670.431 930.828C674.997 922.671 677.083 912.256 679.11 902.181C681.976 887.93 684.681 874.476 693.738 866.402C698.118 862.508 703.861 860.649 709.407 858.848C715.769 856.791 722.348 854.65 727.131 849.466C741.906 833.465 750.699 809.89 751.263 784.798C751.645 767.575 743.74 744.591 735.952 724.375C727.993 703.706 725.081 680.854 726.806 652.471L725.714 651.963L726.806 652.471C727.478 641.386 728.766 630.484 730.017 620.248C734.187 586.39 727.731 542.566 712.653 503C695.792 458.617 669.952 423.159 639.779 402.987C637.11 401.291 634.398 399.834 631.67 398.631C628.661 397.338 625.675 395.665 622.767 393.645C602.782 378.888 588.309 354.142 577.94 334.232C559.707 299.227 542.299 275.446 511.837 264.982C500.571 260.927 489.382 258.46 478.516 257.635C467.212 256.769 457.137 261.59 450.67 265.787C448.851 266.964 447.115 268.239 445.443 269.547C442.558 271.914 439.438 273.927 436.112 275.567C430.167 278.237 424.274 282.279 418.026 286.567C404.394 295.927 390.29 305.615 373.846 302.213C360.225 299.387 346.465 289.665 333.145 280.262C325.919 275.147 318.439 269.873 311.095 265.78C307.474 263.627 303.92 261.124 300.478 258.304C299.445 257.506 298.403 256.697 297.353 255.897C284.845 246.455 269.631 244.372 256.349 243.569C242.732 242.758 230.268 245.978 221.314 252.697C217.562 255.486 214.095 258.926 210.741 262.262C208.15 264.89 205.454 267.499 202.68 269.815L201.677 270.635C196.983 274.533 192.59 278.28 189.369 284.326C184.768 293.159 180.383 301.845 177.288 311.054C176.438 313.766 175.721 316.576 175.141 319.475C174.625 321.716 174.121 324.041 173.476 326.217C170.148 337.45 168.837 348.998 167.78 359.849C165.487 383.288 166.237 408.16 170.005 433.718V433.718ZM239.266 612.407C236.011 590.743 230.592 574.367 221.181 557.771C217.515 551.31 214.082 544.581 210.768 538.081C206.828 530.361 202.746 522.378 198.233 514.71C193.19 506.377 188.98 497.572 185.733 488.566C171.728 450.301 165.813 402.577 169.892 360.904C170.949 350.167 172.245 338.751 175.516 327.704C176.185 325.46 176.709 323.097 177.205 320.78C177.825 318.031 178.454 315.181 179.326 312.581C182.376 303.529 186.737 294.911 191.306 286.145C194.345 280.314 198.667 276.719 203.246 272.903L204.244 272.052C207.063 269.692 209.772 267.003 212.394 264.412C215.711 261.11 219.149 257.706 222.82 254.944C231.543 248.451 243.652 245.301 256.927 246.112C269.891 246.898 284.744 248.906 296.65 257.918C297.698 258.707 298.722 259.503 299.745 260.298C303.329 263.213 307.026 265.797 310.791 268.018C317.996 272.034 325.41 277.265 332.556 282.303C346.088 291.869 360.088 301.769 374.181 304.67C391.286 308.213 405.647 298.365 419.518 288.831C425.704 284.584 431.557 280.566 437.391 277.948C440.814 276.279 444.032 274.236 447.016 271.837C448.669 270.577 450.386 269.288 452.165 268.124C458.461 264.103 468.232 259.361 479.122 260.194C489.83 261.003 500.856 263.433 511.958 267.432C541.458 277.565 558.414 300.779 576.224 334.964C586.796 355.262 601.566 380.506 622.163 395.705C625.206 397.821 628.331 399.578 631.48 400.941C634.084 402.089 636.675 403.475 639.225 405.086C668.734 424.818 694.109 459.675 710.667 503.238C725.514 542.287 731.927 585.546 727.818 618.949C726.553 629.214 725.266 640.178 724.595 651.326C722.849 680.19 725.828 703.488 733.981 724.658C741.642 744.54 749.425 767.11 749.045 783.775C748.472 808.349 739.865 831.462 725.378 847.164C720.829 852.091 714.42 854.17 708.223 856.184C702.527 858.021 696.664 859.93 692.081 864.004C682.665 872.467 679.796 886.873 676.973 900.79C674.983 910.707 672.924 920.962 668.498 928.865C661.603 941.165 649.196 938.693 636.018 936.143C628.688 934.708 621.076 933.211 614.65 934.553C606.421 936.27 598.004 948.665 595.115 956.972C594.303 959.495 593.651 962.136 593.164 964.881C592.947 965.874 592.74 966.942 592.51 967.964C588.506 985.83 574.73 996.673 562.576 1006.22L561.851 1006.79C541.359 1022.9 504.632 1013.49 479.978 985.816C470.395 975.056 463.87 962.116 457.564 949.607C453.651 941.84 449.594 933.8 444.816 926.238C426.396 897.138 399.432 894.067 375.601 891.347C370.75 890.796 366.167 890.273 361.784 889.538C341.839 886.234 307.994 867.563 272.775 825.091C244.319 790.739 229.444 745.942 230.909 699.022C231.589 675.501 234.545 653.021 239.724 631.983C241.231 626.059 240.468 621.034 239.532 614.749L239.183 612.423L239.266 612.407Z" stroke="url(#paint0_linear_10_49)" stroke-opacity="0.6" stroke-width="2" stroke-miterlimit="10"/>
<path d="M151.372 378.409C152.411 385.326 153.584 392.225 154.743 399.092L156.371 408.736C159.723 428.951 163.685 450.721 169.934 472.896C176.184 495.072 184.544 518.683 196.169 547.046C197.5 550.229 198.836 553.444 200.176 556.68C211.778 584.492 223.773 613.273 220.434 639.165C220.13 641.514 219.601 643.791 219.095 645.99C218.454 648.523 217.96 651.156 217.617 653.873C217.369 656.253 217.235 658.715 217.106 661.096C216.98 664.462 216.691 667.754 216.241 670.958C214.937 678.976 214.117 687.268 213.321 695.264C212.935 699.167 212.542 703.089 212.099 707.012C210.835 717.459 211.016 728.622 212.636 740.129C212.974 742.378 213.314 744.638 213.655 746.908C215.773 761.409 217.984 776.411 224.64 791.066L225.033 791.922C227.599 797.64 230.314 803.562 233.986 808.862C234.9 810.173 235.816 811.444 236.721 812.692C239.154 815.913 241.382 819.325 243.371 822.878C249.763 834.755 257.555 845.825 266.392 855.582C294.724 886.775 318.342 893.915 345.688 902.125C356.315 905.326 367.31 908.645 379.372 913.612C402.439 923.108 420.038 935.449 434.788 952.576C437.337 955.694 439.656 959.06 441.696 962.602C442.951 964.657 444.261 966.783 445.68 968.847C447.535 971.536 449.468 974.127 451.338 976.634C454.219 980.387 456.956 984.282 459.533 988.297C461.018 990.682 462.484 993.116 463.951 995.549C470.126 1005.81 476.513 1016.41 485.161 1024.55C494.355 1033.03 504.21 1039.96 514.311 1045.06C536.111 1056.17 560.821 1054.84 578.78 1041.57C595.848 1028.97 600.228 1006.26 604.458 984.257C606.859 971.836 613.915 969.383 628.836 975.779C636.041 978.863 641.394 980.579 647.419 980.188C676.253 978.473 678.91 955.316 681.476 932.916C683.41 916.025 685.41 898.548 698.188 889.024C705.302 883.723 713.973 881.399 722.365 879.147C732.356 876.464 742.693 873.699 750.705 865.91C763.23 853.74 772.424 832.06 775.957 806.441C779.371 781.616 764.128 746.383 751.881 718.082C750.196 714.195 748.576 710.454 747.077 706.89C736.849 682.661 741.058 664.264 745.515 644.798C746.648 639.844 747.822 634.702 748.737 629.493C751.35 614.392 751.974 598.182 750.591 581.332C749.306 564.502 745.892 547.154 740.461 529.858C731.142 500.542 711.691 457.631 691.024 432.701C681.855 421.655 671.126 413.855 660.725 406.31C649.242 398.032 637.375 389.364 627.868 376.41C616.141 360.431 608.003 342.215 600.125 324.593C588.564 298.759 576.688 272.136 553.377 252.328C547.06 246.97 540.715 244.383 533.143 242.15C526.855 240.295 520.597 238.814 514.393 237.711V237.711C480.82 231.847 458.971 240.97 434.604 257.592L433.36 258.398C410.263 274.156 386.376 290.453 353.414 277.92C344.031 274.368 334.649 268.546 327.529 263.929C320.043 259.03 311.839 251.791 303.167 244.22C287.036 230.062 270.354 215.411 255.588 213.12C224.622 208.307 194.527 230.028 178.159 250.074C169.527 260.724 162.56 273.26 157.441 287.356C151.851 302.634 148.713 318.552 148.122 334.676C147.542 348.707 149.141 363.558 151.372 378.409ZM222.073 616.896C219.086 597.016 210.469 576.35 202.064 556.187C200.727 552.962 199.392 549.758 198.06 546.575C186.491 518.356 178.201 494.922 171.975 472.844C165.748 450.765 161.824 429.188 158.495 409.07L156.866 399.415C153.234 378.025 149.476 355.9 150.22 335.573C151.009 318.709 154.116 302.986 159.431 288.956C164.484 275.039 171.363 262.664 179.887 252.153C196.025 232.384 225.631 210.936 255.963 215.675C270.066 217.866 286.423 232.231 302.248 246.117C311.016 253.808 319.302 261.082 326.966 266.087C334.215 270.83 343.767 276.755 353.375 280.39C387.191 293.212 411.388 276.703 434.796 260.743L436.04 259.937C460.138 243.515 481.713 234.496 514.751 240.263C520.882 241.352 527.067 242.821 533.281 244.662C540.548 246.798 546.6 249.25 552.518 254.277C575.164 273.52 586.374 298.609 598.226 325.136C606.186 342.958 614.423 361.377 626.41 377.723C636.272 391.165 648.369 399.947 660.037 408.434C670.248 415.852 680.819 423.561 689.681 434.211C710.003 458.717 729.169 501.04 738.374 529.995C743.722 547.035 747.084 564.127 748.347 580.707C749.71 597.321 749.095 613.303 746.519 628.192C745.585 633.336 744.45 638.444 743.322 643.378C738.955 662.427 734.447 682.121 745.111 707.379C746.621 710.955 748.251 714.709 749.924 718.572C761.999 746.471 777.028 781.19 773.721 805.188C770.248 830.354 761.225 851.694 748.963 863.633C741.198 871.188 731.034 873.912 721.198 876.552C712.692 878.834 703.889 881.186 696.576 886.647C683.276 896.612 681.22 914.451 679.235 931.745C676.673 954.455 674.176 975.898 646.553 977.543C640.896 977.888 635.783 976.236 628.847 973.294C617.547 968.454 605.535 965.807 602.259 982.908C598.096 1004.56 593.778 1026.94 577.182 1039.23C559.676 1052.16 535.648 1053.49 514.486 1042.7C504.634 1037.72 495.021 1030.96 486.052 1022.7C477.794 1014.94 471.564 1004.59 465.524 994.545C464.045 992.089 462.569 989.643 461.072 987.235C458.434 983.121 455.632 979.132 452.681 975.288C450.833 972.817 448.92 970.251 447.11 967.631C445.756 965.662 444.48 963.583 443.246 961.563C441.091 957.834 438.643 954.293 435.952 951.013C420.851 933.533 402.874 920.886 379.369 911.208C367.197 906.189 356.15 902.86 345.47 899.65C318.504 891.53 295.22 884.513 267.501 853.988C258.874 844.46 251.27 833.647 245.038 822.045C242.954 818.334 240.623 814.769 238.08 811.401C237.201 810.21 236.29 808.92 235.397 807.632C231.933 802.638 229.329 796.892 226.805 791.336L226.412 790.48C220.019 776.327 217.806 761.592 215.731 747.327L214.71 740.527C213.089 729.277 212.915 718.369 214.196 708.187C214.636 704.243 215.028 700.321 215.413 696.408C216.205 688.442 217.022 680.191 218.32 672.244C218.789 668.947 219.086 665.556 219.209 662.087C219.334 659.736 219.465 657.315 219.699 654.953C220.033 652.335 220.506 649.796 221.117 647.348C221.686 645.07 222.144 642.718 222.491 640.302C223.447 632.95 223.306 625.047 222.073 616.896V616.896Z" stroke="url(#paint1_linear_10_49)" stroke-opacity="0.6" stroke-width="2" stroke-miterlimit="10"/>
<path d="M128.631 364.505C131.288 382.191 135.919 400.245 140.41 417.768L142.665 426.588C145.672 438.486 148.412 448.385 153.902 458.866C159.497 469.542 162.799 479.429 166.236 490.332C185.101 550.052 201.673 607.973 197.388 660.07C196.758 667.685 195.631 675.23 194.532 682.45C192.805 693.663 191.085 705.269 191.139 717.61C191.2 730.902 193.155 744.941 195.039 758.502C196.223 767.066 197.459 775.918 198.195 784.451C202.91 839.123 251.76 886.792 298.108 909.847C306.404 913.976 314.599 915.218 322.524 916.421L324.672 916.749C337.525 918.734 355.931 922.43 370.627 928.909C378.566 932.415 386.443 937.675 393.043 942.373C408.602 953.405 418.622 971.964 428.329 989.908C435.298 1002.8 442.505 1016.15 451.777 1026.77C453.849 1029.21 455.905 1031.54 457.964 1033.89C481.374 1061.02 499.867 1082.44 530.633 1083.7C550.491 1084.51 577.166 1081.99 591.495 1065.41C600.939 1054.46 609.74 1041.74 610.082 1022.9C610.073 1020.74 609.906 1018.52 609.58 1016.26C609.228 1013.91 609.081 1011.59 609.141 1009.36C610.227 992.462 622.195 997.815 634.877 1003.48C640.785 1006.14 646.377 1008.67 650.942 1008.91C665.574 1009.8 674.181 1005.83 679.863 995.675C685.058 986.372 688.687 972.832 690.627 955.425C691.667 946.11 692.639 937.422 695.937 929.735C699.107 922.095 703.248 915.324 708.262 909.582C716.492 900.666 728.02 899.17 740.13 897.573C746.189 896.933 752.082 895.808 757.774 894.206C772.272 889.71 783.489 878.53 791.121 860.981C806.116 826.463 790.075 788.431 773.022 748.152L770.455 742.082C769.351 739.446 768.226 736.837 767.121 734.253C758.42 713.973 750.205 694.823 752.126 675.194C753.042 666.073 755.965 657.936 758.807 650.115C761.649 642.293 764.646 634.025 765.602 624.602C768.105 599.816 764.679 572.415 761.363 545.911L760.403 538.213C753.873 485.254 736.024 449.102 700.698 417.369C686.221 404.515 671.34 392.606 656.152 381.721C646.587 374.823 640.158 363.934 635.143 354.168C628.98 342.213 623.852 330.446 618.899 319.102C609.803 298.297 601.247 278.642 587.061 258.469C585.229 255.866 583.442 253.23 581.655 250.583C578.075 245.158 574.302 239.887 570.353 234.794C555.124 215.516 533.121 205.418 506.699 205.425C477.757 205.408 455.185 216.96 448.887 220.459C445.578 222.334 442.225 224.542 438.024 227.628C434.181 230.438 430.388 233.577 426.264 236.842C412.687 247.862 397.293 260.357 379.996 261.837C366.927 262.95 352.373 254.98 342.451 248.089C329.891 239.367 316.481 227.375 303.679 213.408C299.363 208.692 294.167 203.341 288.371 199.275C266.536 184.11 236.464 179.635 219.254 183.112C195.598 187.904 178.74 196.615 166.227 210.522L163.931 213.066C155.3 222.55 146.36 232.359 142.554 246.258C141.54 249.954 140.814 253.867 140.11 257.64C139.331 261.822 138.529 266.135 137.343 270.109C132.21 287.273 128.728 305.604 126.946 324.841C125.974 335.541 126.264 346.829 127.811 358.423C128.054 360.489 128.33 362.5 128.631 364.505ZM196.872 601.786C191.493 565.981 180.345 528.446 168.259 490.173C164.89 479.499 161.387 469.008 155.647 458.048C150.361 447.955 147.685 438.263 144.736 426.634C143.995 423.693 143.238 420.748 142.48 417.804C137.509 398.398 132.347 378.338 129.966 358.969C128.447 347.598 128.156 336.525 129.103 326.028C130.878 306.942 134.332 288.752 139.418 271.714C140.564 267.621 141.508 263.388 142.247 259.029C142.939 255.296 143.664 251.434 144.649 247.826C148.355 234.341 157.154 224.672 165.66 215.32L167.965 212.778C180.298 199.096 196.929 190.52 220.287 185.787C237.132 182.378 266.486 186.732 287.832 201.54C293.355 205.371 298.371 210.544 302.563 215.114C315.537 229.267 329.145 241.44 341.915 250.314C356.599 260.515 370.069 265.42 380.856 264.49C398.538 262.967 414.143 250.345 427.863 239.196C431.931 235.901 435.763 232.789 439.57 229.972C443.733 226.911 447.046 224.727 450.318 222.886C463.02 215.69 484.688 207.998 507.401 207.998C525.311 207.992 550.557 212.88 569.019 236.193C572.905 241.23 576.62 246.438 580.148 251.795C581.946 254.454 583.746 257.124 585.608 259.753C599.544 279.571 608.038 299.039 617.037 319.652C622.019 331.072 627.171 342.885 633.428 354.961C638.654 365.105 645.376 376.471 655.574 383.834C670.656 394.665 685.432 406.513 699.802 419.301C734.369 450.349 751.847 485.794 758.244 537.749L759.204 545.446C762.495 571.78 765.903 599.013 763.431 623.495C762.507 632.615 759.583 640.69 756.754 648.483C753.869 656.42 750.889 664.629 749.963 674.079C747.911 694.489 756.352 714.061 765.238 734.777C766.343 737.362 767.46 739.969 768.564 742.605L771.132 748.685C787.869 788.227 803.689 825.692 789.104 859.19C781.657 876.329 770.723 887.231 756.635 891.615C750.993 893.181 745.157 894.278 739.157 894.899C727.297 896.459 715.027 898.067 706.475 907.338C701.334 913.201 697.086 920.119 693.832 927.929C690.414 935.893 689.431 944.734 688.381 954.098C686.46 971.344 682.911 984.63 677.836 993.707C672.457 1003.33 664.209 1007.07 650.241 1006.23C646.024 1005.98 640.621 1003.57 634.896 1001C622.342 995.386 608.105 989.011 606.873 1008.29C606.796 1010.7 606.951 1013.2 607.336 1015.74C607.636 1017.85 607.794 1019.92 607.807 1021.95C607.472 1040.1 598.88 1052.51 589.646 1063.21C575.673 1079.38 549.448 1081.82 529.899 1081.03C500.13 1079.82 482.026 1058.83 459.1 1032.26C457.042 1029.91 454.978 1027.53 452.912 1025.13C443.955 1014.84 436.866 1001.72 430.005 988.975C420.099 970.663 409.901 951.659 393.61 940.134C386.851 935.335 378.854 929.96 370.7 926.383C355.78 919.833 337.176 916.07 324.2 914.063L322.052 913.735C314.285 912.56 306.255 911.338 298.278 907.35C252.825 884.735 204.93 838.087 200.325 784.952C199.585 776.335 198.35 767.432 197.153 758.835C195.284 745.369 193.353 731.438 193.288 718.341C193.232 706.216 194.976 694.718 196.656 683.589C197.751 676.286 198.895 668.744 199.53 661.048C200.969 642.15 200.075 622.213 196.872 601.786Z" stroke="url(#paint2_linear_10_49)" stroke-opacity="0.6" stroke-width="2" stroke-miterlimit="10"/>
<path d="M100.592 356.573C100.805 357.996 101.021 359.429 101.363 360.916C102.225 365.008 103.076 369.138 103.919 373.278C109.193 399.021 114.624 425.526 124.91 450.972C128.975 461.005 133.662 470.975 138.207 480.631C145.964 497.128 153.991 514.181 158.872 531.633C164.981 553.51 167.204 575.291 169.346 596.365C169.952 602.331 170.557 608.286 171.251 614.268C174.149 639.238 171.863 661.315 169.655 682.662C167.951 699.186 166.177 716.275 166.77 734.806C167.129 746.396 169.111 758.798 171.024 770.794C171.417 773.406 171.858 776.006 172.255 778.587C176.894 808.79 189.902 849.178 212.486 871.974C214.636 874.141 216.794 876.361 218.951 878.571C227.312 887.175 235.972 896.122 245.199 903.169C260.622 915.018 274.522 923.142 286.594 927.329C300.511 932.161 314.633 934.159 328.294 936.095C333.669 936.855 339.227 937.638 344.622 938.587C363.597 941.901 379.786 949.253 392.726 960.414C404.414 970.5 408.794 980.301 413.876 991.655C416.56 997.922 419.64 1004.07 423.08 1010.02C425.214 1013.48 427.507 1016.83 429.941 1020.04C431.715 1022.43 433.566 1024.99 435.199 1027.51C437.538 1031.29 439.67 1035.2 441.575 1039.19C443.194 1042.53 444.939 1045.81 446.804 1049.03C476.879 1099.5 536.038 1123.74 573.595 1117.24C581.316 1115.91 587.438 1112.27 593.928 1108.42L594.493 1108.09C611.664 1097.92 612.664 1075.79 613.759 1052.37L614.003 1047.18C615.157 1024.27 633.143 1027.35 650.543 1030.34C654.146 1030.99 657.543 1031.53 660.804 1031.89C685.947 1034.66 699.214 1023.19 701.404 996.838C701.691 993.359 702.017 989.907 702.344 986.465C703.127 978.222 703.926 969.693 704.195 960.984C704.701 944.253 706.454 933.274 714.297 923.216C724.906 909.602 735.669 907.799 754.359 909.048C758.872 909.341 763.763 910.116 768.933 910.932C785.66 913.579 804.614 916.58 813.719 902.548C835.625 868.949 819.8 813.323 803.569 768.621L803.102 767.328C785.08 717.685 773.181 684.902 787.614 643.615C793.389 627.109 793.788 607.229 793.689 586.588C793.441 529.538 775.831 473.381 745.484 432.568C733.047 415.85 717.69 404.095 702.831 392.71C686.652 380.31 669.925 367.501 657.344 348.402C647.976 334.173 638.417 314.188 631.113 293.549C629.554 288.831 628.384 284.087 627.623 279.397C627.094 276.616 626.551 273.739 625.81 270.733C619.986 247.234 606.203 222.63 588.943 204.911C570.917 186.403 548.257 172.464 528.274 167.614L523.845 166.509C516.307 164.633 509.004 163.017 502.713 163.826C482.842 166.41 455.079 173.964 435.702 195.619C432.423 199.278 429.156 203.136 426.036 206.885C414.687 220.396 402.947 234.372 387.166 241.821C383.098 243.746 376.918 246.372 370.278 247.014C364.053 247.576 359.154 244.992 352.909 241.337C350.953 240.176 349.013 239.183 347.146 238.225C343.042 236.105 339.159 234.098 335.323 230.695C332.048 227.797 329.485 224.471 326.762 220.878C324.505 217.799 322.071 214.898 319.492 212.214C313.751 206.462 308.597 199.174 303.142 191.47C293.46 177.762 283.435 163.589 269.782 158.64C223.256 141.758 188.056 162.975 159.762 185.953C158.238 187.163 156.707 188.321 155.245 189.49C149.739 193.705 144.051 198.072 139.968 204.611C133.564 214.827 128.685 226.395 123.971 237.641C119.56 248.014 115.084 258.746 109.394 268.266C108.53 269.72 107.608 271.132 106.686 272.545C104.096 276.535 101.408 280.663 99.8368 285.758C98.2657 290.853 97.9308 296.854 97.6309 302.634C97.5227 304.752 97.4129 306.86 97.2442 308.915C96.6583 316.368 97.3682 322.91 98.2327 330.482L98.6777 334.466C99.0159 337.626 99.2011 340.675 99.3926 343.653C99.5948 347.904 99.995 352.217 100.592 356.573V356.573ZM167.55 563.406C166.043 552.885 163.826 542.245 160.921 531.592C155.96 513.837 147.856 496.615 140.027 479.97C135.505 470.36 130.833 460.434 126.83 450.525C116.669 425.402 111.264 399.015 106.04 373.487L103.481 361.105C102.405 355.415 101.762 349.791 101.563 344.306C101.375 341.297 101.179 338.174 100.836 334.982L100.388 330.977C99.5518 323.596 98.814 317.152 99.4166 309.981C99.5973 307.948 99.6944 305.756 99.8065 303.608C100.097 297.991 100.399 292.17 101.912 287.312C103.425 282.455 106.041 278.469 108.524 274.562C109.46 273.132 110.387 271.699 111.285 270.241C117.029 260.628 121.575 249.846 125.967 239.409C130.661 228.251 135.52 216.721 141.871 206.547C145.818 200.242 151.154 196.141 156.813 191.81C158.343 190.642 159.873 189.474 161.353 188.256C189.342 165.522 224.116 144.527 269.83 161.117C282.618 165.754 292.309 179.464 301.685 192.723C306.991 200.235 312.507 208.002 318.463 213.989C320.915 216.548 323.227 219.316 325.366 222.256C328.096 226.066 331.145 229.557 334.428 232.629C338.57 236.304 342.803 238.489 346.89 240.605C348.737 241.55 350.589 242.527 352.513 243.64C358.913 247.416 364.353 250.253 371.108 249.643C377.863 249.032 384.313 246.332 388.477 244.362C404.512 236.784 416.345 222.69 427.796 209.064C430.928 205.337 434.168 201.475 437.424 197.833C456.537 176.521 483.966 169.01 503.608 166.487C509.622 165.711 516.732 167.292 524.102 169.127L525.572 169.487L528.512 170.218C548.027 174.962 570.208 188.608 587.84 206.704C604.383 223.683 618.12 248.207 623.69 270.699C624.408 273.608 624.945 276.442 625.465 279.17C626.258 284.041 627.478 288.968 629.105 293.866C636.519 314.834 646.224 335.115 655.778 349.615C668.722 369.255 685.692 382.263 702.111 394.841C716.777 406.077 731.934 417.693 744.038 433.958C773.947 474.123 791.213 529.464 791.472 585.793C791.56 606.195 791.179 625.85 785.524 642.017C770.823 684.133 782.909 717.362 801.137 767.642L801.604 768.935C832.039 852.797 823.104 883.341 811.911 900.557C803.279 913.88 785.571 911.054 768.539 908.361C763.297 907.522 758.398 906.756 753.798 906.447C734.591 905.166 723.514 907.036 712.518 921.137C704.375 931.585 702.551 942.882 702.038 960.076C701.778 968.734 700.971 977.211 700.2 985.415C699.865 988.865 699.532 992.326 699.255 995.818C697.157 1021.02 684.418 1031.97 660.307 1029.32C657.1 1028.98 653.73 1028.4 650.16 1027.79C632.786 1024.81 613.094 1021.44 611.851 1046.25L611.609 1051.46C610.57 1074.34 609.552 1095.94 593.112 1105.71L592.548 1106.04C586.167 1109.83 580.147 1113.4 572.676 1114.7C525.353 1122.88 471.369 1086.49 448.476 1048.07C446.667 1044.94 444.972 1041.75 443.4 1038.51C441.419 1034.37 439.197 1030.32 436.756 1026.41C435.057 1023.79 433.179 1021.22 431.339 1018.74C428.984 1015.63 426.765 1012.39 424.7 1009.05C421.332 1003.2 418.319 997.156 415.695 990.994C410.637 979.686 405.861 969.007 393.526 958.359C380.211 946.862 363.609 939.311 344.202 935.908C338.767 934.921 333.197 934.166 327.813 933.405C314.249 931.487 300.214 929.505 286.495 924.739C274.683 920.641 261.009 912.651 245.871 900.999C236.837 894.049 228.277 885.254 219.999 876.748C217.83 874.515 215.672 872.295 213.511 870.116C191.6 848 178.929 808.489 174.381 778.891C173.993 776.311 173.603 773.71 173.147 771.077C171.249 759.176 169.283 746.88 168.927 735.487C168.358 717.167 170.11 700.167 171.803 683.734C174.022 662.234 176.319 640.004 173.373 614.715C172.684 608.766 172.081 602.821 171.478 596.877C170.388 585.877 169.245 574.691 167.545 563.374L167.55 563.406Z" stroke="url(#paint3_linear_10_49)" stroke-opacity="0.6" stroke-width="2" stroke-miterlimit="10"/>
<path d="M77.0838 332.975C78.5959 343.042 81.8324 353.855 84.9756 364.331C85.4921 366.065 86.014 367.78 86.5065 369.469C94.7192 397.282 104.163 427.041 117.529 456.338C124.017 470.569 129.634 483.435 132.632 496.804C134.879 506.818 137.675 516.86 140.369 526.563C145.913 546.432 151.12 565.197 152.347 584.549L152.856 592.256C153.261 598.19 153.679 604.322 153.915 610.267C154.65 628.219 152.495 645.904 150.414 662.994C149.486 670.615 148.529 678.499 147.869 686.262C147.42 690.446 146.756 694.514 145.878 698.446C144.836 703.55 143.762 708.834 143.648 714.55L143.647 715.055C143.463 725.184 143.273 735.622 146.355 746.882C148.307 754.537 149.876 762.176 151.053 769.754C153.356 783.152 155.745 797.009 162.057 810.074C165.462 817.12 168.601 824.222 171.637 831.088C182.544 855.769 192.845 879.081 214.135 898.211C240.172 921.628 264.269 935.025 292.315 941.659C295.403 942.396 298.524 943.241 301.584 944.076C306.456 945.395 311.49 946.764 316.427 947.661C319.339 948.19 322.245 948.625 325.167 949.053C330.843 949.753 336.593 950.863 342.385 952.378C352.839 955.362 359.833 960.636 367.976 966.749C372.397 970.166 376.899 973.326 381.46 976.215C386.784 979.514 388.771 981.103 391.828 987.313C406.238 1016.52 418.736 1040.04 431.17 1061.31C441.281 1078.71 457.748 1095.94 469.729 1106.25C473.748 1109.6 477.854 1112.72 482.027 1115.6C484.895 1117.66 487.916 1119.77 490.802 1122.06C492.531 1123.4 494.225 1124.74 495.901 1126.08C505.019 1133.4 513.634 1140.32 524.051 1144.19C553.486 1155.14 585.812 1149.77 606.403 1130.52C611.481 1125.77 613.382 1118.6 614.892 1111.67C616.07 1105.56 616.861 1099.21 617.257 1092.66C618.236 1080.67 619.247 1068.26 625.333 1059.94C632.459 1050.19 644.075 1052.17 656.361 1054.23C659.413 1054.78 662.551 1055.29 665.587 1055.63C679.766 1057.17 697.432 1059.15 706.504 1048C714.94 1037.83 713.748 1017.06 712.709 998.786C712.347 992.633 712.012 986.825 712.053 981.756C712.076 979.697 711.932 977.432 711.795 975.271C711.56 971.431 711.315 967.476 711.923 964.254C718.008 931.848 748.383 935.305 780.661 938.994C803.66 941.616 827.44 944.328 841.536 932.713C846.344 928.717 850.186 920.789 851.827 914.68C852.975 910.452 852.866 905.47 852.757 900.652L852.725 898.965C852.248 872.052 846.008 838.747 833.656 797.233C831.723 791.107 829.471 785.014 826.916 778.994C825.886 776.455 824.858 773.926 823.882 771.406C803.646 719.029 798.272 665.257 809.502 627.574C810.215 625.166 811.071 622.804 811.906 620.521C813.473 616.545 814.731 612.321 815.672 607.885C818.791 591.118 814.489 566.337 811.03 546.435L810.069 540.833C808.319 530.6 805.623 520.318 803.02 510.374C801.437 504.318 799.797 498.057 798.389 491.868L798.017 490.243C796.467 483.389 794.999 476.911 791.852 469.869C782.335 448.536 770.319 429.246 759.812 413.139C747.068 393.603 733.081 384.416 716.897 373.788C714.782 372.372 712.624 370.948 710.439 369.519C677.349 347.42 659.865 306.779 642.95 267.49C634.761 248.462 626.291 228.763 616.217 211.786C599.861 184.216 572.021 161.07 533.453 142.99C531.931 142.28 530.409 141.614 528.888 140.994C500.459 129.42 466.531 130.817 446.38 144.375C442.252 147.317 438.359 150.62 434.721 154.266C432.534 156.345 430.282 158.505 427.972 160.448C426.042 162.078 424.013 163.618 422.043 165.097C418.151 167.838 414.512 170.968 411.15 174.466C408.951 176.901 406.759 179.347 404.575 181.804C395.188 192.283 385.475 203.096 375.331 213.025C369.469 218.748 364.277 222.912 355.425 220.313C337.444 214.982 324.33 196.503 311.625 178.593C304.883 169.145 297.914 159.325 290.3 151.565C266.144 127.045 237.772 120.909 203.573 132.822C201.408 133.573 199.23 134.292 197.078 135.015C190.266 137.254 183.219 139.574 176.822 142.982C174.43 144.379 172.268 146.156 170.375 148.28C169.383 149.286 168.386 150.312 167.266 151.265C166.153 152.177 164.978 152.996 163.745 153.72C161.97 154.735 160.336 155.989 158.866 157.466C151.904 165.125 144.137 172.02 136.615 178.68C126.733 187.449 116.52 196.52 107.957 207.438C92.3802 227.306 81.3351 256.107 76.8622 288.455C75.1371 301.523 75.0872 315.447 76.7142 329.833C76.7787 330.887 76.9276 331.936 77.0838 332.975ZM153.036 571.705C150.75 556.483 146.526 541.312 142.41 526.522C139.721 516.85 136.897 506.855 134.718 496.946C131.643 483.232 125.69 469.614 119.355 455.721C106.091 426.649 96.7036 397.034 88.5308 369.372L86.9879 364.212C83.5657 352.787 80.0288 340.939 78.8046 330.347C77.2145 316.207 77.2653 302.521 78.9557 289.671C83.3815 257.635 94.2894 229.169 109.686 209.516C118.166 198.676 128.339 189.681 138.175 180.944C145.701 174.254 153.516 167.337 160.566 159.642C161.946 158.25 163.483 157.072 165.156 156.122C166.446 155.364 167.675 154.502 168.837 153.541C169.985 152.553 171.02 151.493 172.028 150.479C173.819 148.439 175.872 146.736 178.149 145.401C184.471 142.062 191.436 139.757 198.198 137.53C200.385 136.813 202.572 136.096 204.744 135.335C238.206 123.68 265.848 129.56 289.228 153.289C296.639 160.826 303.53 170.529 310.188 179.931C323.186 198.317 336.698 217.343 355.609 222.905C365.311 225.762 370.818 221.367 377.016 215.322C387.193 205.389 396.924 194.528 406.325 184.031L412.902 176.704C416.202 173.257 419.777 170.173 423.603 167.475C425.58 165.987 427.634 164.441 429.586 162.784C431.924 160.805 434.201 158.639 436.393 156.541C439.981 152.93 443.818 149.655 447.886 146.733C467.656 133.426 500.95 132.068 528.861 143.424C530.341 144.023 531.821 144.674 533.307 145.367C571.271 163.172 598.62 185.837 614.58 212.758C624.517 229.504 632.939 249.111 641.071 267.984C658.214 307.831 675.944 349.033 709.924 371.716C712.118 373.147 714.277 374.571 716.401 375.989C732.262 386.403 745.964 395.393 758.265 414.251C768.683 430.228 780.603 449.387 789.998 470.42C792.998 477.156 794.414 483.408 795.918 490.068L796.29 491.693C797.714 497.936 799.357 504.219 800.955 510.308C803.537 520.177 806.213 530.382 807.933 540.466L808.904 546.08C812.32 565.757 816.568 590.229 813.541 606.538C812.615 610.854 811.382 614.965 809.853 618.837C809.015 621.151 808.145 623.541 807.414 625.998C796.017 664.269 801.455 718.755 821.919 771.792C822.897 774.333 823.937 776.885 824.979 779.447C827.481 785.348 829.692 791.32 831.597 797.323C843.888 838.548 850.068 871.511 850.549 898.167L850.54 899.868C850.639 904.498 850.743 909.283 849.685 913.197C848.162 918.843 844.452 926.629 839.898 930.383C826.232 941.622 802.799 938.952 780.104 936.365C748.626 932.78 716.062 929.06 709.701 962.922C709.036 966.443 709.292 970.586 709.544 974.594C709.678 976.795 709.806 978.892 709.781 980.827C709.7 985.972 710.08 991.849 710.441 998.054C711.476 1015.91 712.658 1036.16 704.709 1045.93C696.059 1056.49 678.892 1054.59 665.065 1053.06C662.073 1052.73 658.964 1052.19 655.943 1051.68C643.741 1049.6 631.116 1047.44 623.488 1057.88C617.124 1066.62 616.071 1079.31 615.068 1091.61C614.684 1098.04 613.912 1104.28 612.757 1110.29C611.354 1117.02 609.515 1123.86 604.784 1128.31C584.589 1147.2 552.9 1152.48 524.061 1141.76C514.032 1138.03 505.602 1131.26 496.669 1124.09C494.984 1122.75 493.281 1121.41 491.532 1119.99C488.627 1117.69 485.565 1115.53 482.641 1113.44C478.541 1110.63 474.506 1107.56 470.558 1104.27C458.803 1094.16 442.682 1077.3 432.734 1060.25C420.346 1039.06 407.897 1015.64 393.506 986.504C390.035 979.466 387.396 977.345 381.782 973.869C377.296 971.025 372.87 967.913 368.524 964.547C360.524 958.533 352.966 952.857 342.075 949.743C336.196 948.204 330.361 947.074 324.6 946.36C321.713 945.939 318.826 945.518 315.931 944.981C311.073 944.098 306.084 942.748 301.255 941.437C298.141 940.582 295.029 939.738 291.917 939.007C264.339 932.479 240.604 919.282 214.952 896.213C194.309 877.645 184.179 854.725 173.452 830.448C170.402 823.548 167.249 816.413 163.819 809.311C157.743 796.743 155.403 783.153 153.137 769.998C151.953 762.312 150.361 754.561 148.372 746.795C145.409 736.042 145.594 726.253 145.784 715.877L145.786 715.382C145.888 709.87 146.936 704.695 147.959 699.691C148.856 695.673 149.533 691.514 149.986 687.235C150.653 679.576 151.612 671.713 152.535 664.112C154.641 646.954 156.799 629.126 156.056 610.945C155.815 604.968 155.394 598.815 154.994 592.861L154.478 585.163C154.205 580.737 153.73 576.253 153.057 571.729L153.036 571.705Z" stroke="url(#paint4_linear_10_49)" stroke-opacity="0.6" stroke-width="2" stroke-miterlimit="10"/>
<path d="M52.6929 349.322C53.3512 353.705 54.2701 358.062 55.2096 362.558L56.3939 368.285C59.4692 383.707 66.5243 402.186 72.7483 418.48L75.5866 426.025C78.3126 432.955 81.3355 439.815 84.6399 446.57C85.8765 449.127 87.0606 451.675 88.2375 454.232C114.334 511.059 126.332 554.156 128.314 598.333C128.821 609.655 127.873 619.805 126.868 630.532L126.735 631.974C125.588 644.203 124.274 662.41 126.074 679.335C126.482 683.238 126.921 687.127 127.357 690.994C129.466 709.688 131.461 727.34 130.599 745.041L130.299 750.931C129.714 761.9 129.174 772.269 129.908 783.798C132.233 819.872 143.288 851.02 166.867 887.964C176.622 903.248 196.229 920.725 209.75 929.417C222.726 937.772 237.267 944.172 252.963 948.438C261.034 950.638 269.165 951.992 277.016 953.295C280.074 953.851 283.136 954.314 286.16 954.864L289.034 955.386C311.601 959.487 337.183 964.136 358.603 983.357C361.314 985.903 363.923 988.64 366.405 991.546C368.687 994.199 371.06 996.729 373.511 999.124C382.458 1007.61 388.251 1023.48 393.397 1037.53C395.537 1043.67 397.971 1049.75 400.686 1055.75C403.904 1062.53 407.18 1069.25 410.458 1075.98L415.952 1087.3C421.608 1099.07 427.323 1107.66 434.467 1115.16C438.139 1119 441.814 1123.03 445.668 1127.3C458.392 1141.18 471.528 1155.59 485.47 1164.59C489.379 1167.11 493.418 1169.99 497.315 1172.79C505.749 1178.82 514.504 1185.07 523.246 1188.67C528.133 1190.67 532.967 1191.42 537.637 1192.14C539.039 1192.4 540.429 1192.57 541.831 1192.82C549.412 1194.2 555.722 1194.84 561.907 1193.73C589.351 1188.87 605.666 1177.63 616.466 1156.12C620.11 1148.82 623.18 1140.88 626.19 1133.22C631.71 1118.9 637.492 1104.11 647.208 1093.31C651.223 1088.88 654.829 1086.27 660.462 1087.22C662.478 1087.59 664.502 1087.96 666.518 1088.32C667.99 1088.59 669.463 1088.86 670.9 1089.12C673.967 1089.68 677.035 1090.24 680.093 1090.79C686.587 1091.97 693.09 1093.15 699.584 1094.33C712.694 1096.88 722.694 1094.33 729.314 1086.76C736.128 1078.95 738.956 1067.81 741.275 1057.08C743.13 1048.49 742.805 1039.24 742.498 1030.27C742.312 1024.94 742.123 1019.43 742.383 1014.07C742.447 1011.4 742.274 1008.63 741.869 1005.82C741.688 1004.28 741.499 1002.74 741.402 1001.18C741.111 996.35 742.951 989.077 744.864 985.409C754.061 967.583 772.222 968.23 790.473 971.578L791.805 971.82C806.353 974.464 821.412 977.273 834.5 973.944C837.489 973.186 840.485 972.244 843.383 971.336C845.011 970.82 846.64 970.315 848.27 969.82C849.088 969.586 849.91 969.385 850.67 969.223C854.01 968.365 857.162 967.554 859.702 964.372C862.767 960.327 865.362 955.76 867.449 950.741C869.521 946.023 871.03 940.832 871.945 935.27C873.331 927.874 873.283 920.516 873.229 912.723C873.217 910.657 873.2 908.496 873.21 906.351C873.373 884.054 864.788 858.227 857.215 835.454L857.059 834.982C856.53 833.389 856.057 831.827 855.585 830.275C854.403 825.962 852.796 821.671 850.802 817.505C848.337 812.86 846.212 808.067 844.46 803.202C843.761 801.348 842.947 799.519 842.027 797.733C840.834 795.513 839.895 793.185 839.244 790.838C837.914 784.701 837.078 778.619 836.747 772.682C835.483 751.045 831.768 728.188 828.194 706.1C827.336 700.783 826.459 695.401 825.627 690.089C823.506 676.419 823.761 662.396 826.517 646.186C827.904 637.995 831.135 632.378 834.258 626.949C839.089 618.537 843.652 610.603 841.618 594.224C840.857 588.027 840.211 581.737 839.598 575.67C838.985 569.603 838.322 563.206 837.542 556.933C832.901 519.736 823.579 485.827 809.812 456.375C797.135 429.247 782.504 414.583 765.57 397.643C759.546 391.594 753.278 385.335 746.71 378.104C744.674 375.896 742.652 373.784 740.63 371.672C736.292 367.356 732.168 362.69 728.305 357.727C722.13 349.473 715.465 341.656 709.01 334.093C705.077 329.477 701.011 324.712 697.11 319.905C686.312 306.589 678.631 291.207 671.194 276.313C666.832 267.31 662.129 258.448 657.104 249.764C655.838 247.635 654.586 245.601 653.365 243.604C649 236.504 644.88 229.789 641.707 221.491C640.603 218.628 639.569 215.828 638.551 213.083C633.322 198.983 628.379 185.657 618.32 172.32C607.141 157.489 595.682 147.036 583.551 135.964C579.322 132.099 574.948 128.125 570.487 123.846C556.548 110.506 540.331 103.162 526.32 97.7356C517.767 94.4266 509.858 93.0202 501.519 91.5357L501.169 91.472C498.785 91.0388 496.383 90.5403 493.981 90.0419C486.06 88.3856 477.908 86.6667 470.515 87.8416C445.665 91.8722 424.057 101.642 408.017 116.078C385.086 136.684 372.284 157.127 366.488 182.271C364.438 191.322 360.63 195.822 355.259 195.651C340.319 195.166 315.368 160.15 298.853 136.98C292.534 128.111 287.544 121.114 284.381 117.763C277.118 110.043 268.741 104.444 260.625 98.9948L258.729 97.7212C234.387 81.4065 205.677 91.682 182.605 99.9372C177.249 101.854 172.194 103.671 167.641 104.97C163.912 106.175 160.357 107.754 157.005 109.694C153.791 111.569 150.387 113.106 146.818 114.294C140.723 116.056 136.38 117.558 131.68 121.968C128.388 124.894 124.866 127.487 121.134 129.734C117.192 132.116 113.488 134.892 110.047 138.041C107.688 140.326 105.117 142.45 102.622 144.515C98.5184 147.687 94.7006 151.279 91.195 155.269C89.0441 157.974 86.5394 160.254 84.1509 162.514C81.7625 164.774 79.3367 167.069 77.1411 169.704C60.7953 189.37 57.8613 208.087 53.422 236.419L52.6471 241.305C48.2683 268.905 49.6657 296.935 51.1221 326.607C51.3478 331.117 51.5664 335.637 51.7738 340.195C51.9122 343.192 52.2192 346.241 52.6929 349.322ZM127.6 569.013C122.37 534.196 110.524 498.063 90.1153 453.624C88.9265 451.044 87.7145 448.481 86.501 445.907C83.2428 439.266 80.2627 432.52 77.5759 425.705C76.654 423.257 75.6859 420.727 74.736 418.15C68.5575 401.988 61.5614 383.675 58.5466 368.542C58.1616 366.604 57.7536 364.682 57.3592 362.794C55.7876 355.283 54.3277 348.287 53.9911 340.939C53.7826 336.373 53.5649 331.84 53.3378 327.34C51.8846 297.803 50.5095 269.921 54.8333 242.58L55.6082 237.694C60.0021 209.684 62.8995 191.177 78.9656 171.863C81.1373 169.295 83.521 167.004 85.8576 164.796C88.1942 162.589 90.777 160.147 93.0196 157.427C96.4547 153.502 100.195 149.965 104.216 146.838C106.726 144.766 109.317 142.604 111.76 140.313C115.141 137.242 118.779 134.537 122.649 132.218C126.454 129.932 130.043 127.288 133.395 124.303C137.875 120.08 142.077 118.655 147.99 116.933C151.628 115.731 155.097 114.171 158.371 112.265C161.643 110.366 165.116 108.824 168.76 107.65C173.352 106.327 178.433 104.516 183.813 102.593C206.529 94.4587 234.776 84.3364 258.208 100.042L260.103 101.305C268.054 106.62 276.278 112.11 283.301 119.538C286.281 122.691 291.446 129.947 297.429 138.342C314.315 162.055 339.814 197.82 355.935 198.334C362.085 198.533 366.36 193.623 368.636 183.745C374.344 158.978 386.995 138.837 409.673 118.423C425.526 104.159 446.904 94.5024 471.487 90.5163C478.585 89.36 486.595 91.0427 494.341 92.6672C496.77 93.1704 499.191 93.6827 501.582 94.1069L501.941 94.1722C510.214 95.6757 518.031 97.0343 526.384 100.266C540.866 105.87 556.061 112.823 569.568 125.734C574.068 130.04 578.49 134.054 582.702 137.916C594.694 148.859 606.035 159.208 616.999 173.742C626.689 186.609 631.312 199.051 636.644 213.439C637.673 216.206 638.712 218.975 639.815 221.891C643.133 230.534 647.346 237.411 651.819 244.716C653.036 246.692 654.278 248.714 655.534 250.831C660.505 259.424 665.158 268.195 669.471 277.104C676.997 292.19 684.784 307.767 695.863 321.423C699.796 326.267 703.875 331.065 707.827 335.695C714.232 343.207 720.855 350.975 726.957 359.134C730.91 364.216 735.128 369 739.564 373.429C741.583 375.52 743.603 377.621 745.549 379.792C752.177 387.086 758.457 393.368 764.538 399.458C781.212 416.145 795.638 430.575 807.994 457.046C821.574 486.103 830.776 519.608 835.381 556.51C836.157 562.751 836.799 569.071 837.417 575.17C838.035 581.269 838.683 587.57 839.457 593.8C841.373 609.281 836.964 616.933 832.315 625.027C829.118 630.639 825.808 636.354 824.347 644.904C821.549 661.406 821.24 675.635 823.466 689.716C824.263 695.022 825.165 700.347 826.034 705.738C829.606 727.754 833.299 750.524 834.557 772.006C834.897 778.123 835.762 784.39 837.137 790.713C837.841 793.361 838.884 795.992 840.224 798.5C841.074 800.146 841.826 801.833 842.474 803.543C844.286 808.567 846.481 813.517 849.023 818.317C850.922 822.291 852.448 826.384 853.564 830.496C854.04 832.08 854.527 833.675 855.07 835.301L855.226 835.774C862.709 858.293 871.197 883.814 871.042 905.596C871.025 907.75 871.038 909.879 871.058 911.998C871.108 919.656 871.155 926.89 869.81 934.057C868.921 939.442 867.456 944.468 865.445 949.035C863.411 953.919 860.886 958.366 857.909 962.313C855.656 965.134 852.849 965.852 849.598 966.686C848.776 966.887 847.955 967.099 847.139 967.343C845.508 967.831 843.881 968.351 842.254 968.871C839.372 969.771 836.401 970.707 833.445 971.461C820.668 974.702 805.806 971.96 791.429 969.316L790.141 969.082C771.325 965.662 752.573 965 742.956 983.659C740.93 987.595 738.942 995.192 739.279 1000.61C739.377 1002.23 739.567 1003.83 739.756 1005.43C740.142 1008.08 740.309 1010.67 740.256 1013.18C739.988 1018.67 740.212 1024.24 740.364 1029.63C740.69 1038.83 740.988 1047.51 739.182 1055.8C736.912 1066.29 734.157 1077.18 727.584 1084.66C721.323 1091.84 711.787 1094.25 699.238 1091.8C692.723 1090.54 686.223 1089.38 679.721 1088.26C676.662 1087.7 673.586 1087.14 670.536 1086.59C669.073 1086.32 667.609 1086.06 666.155 1085.79C664.121 1085.42 662.088 1085.05 660.02 1084.68C653.023 1083.5 648.821 1087.42 645.431 1091.18C635.534 1102.19 629.724 1117.15 624.112 1131.6C621.218 1139.18 618.14 1147.06 614.503 1154.28C603.922 1175.33 587.913 1186.39 560.937 1191.13C555.02 1192.2 548.832 1191.53 541.432 1190.22C540.021 1189.96 538.601 1189.7 537.194 1189.53C532.647 1188.83 527.935 1188.11 523.284 1186.2C514.797 1182.71 506.212 1176.57 497.929 1170.63C494.008 1167.85 489.944 1164.91 485.969 1162.34C472.377 1153.58 459.415 1139.36 446.873 1125.62C442.965 1121.33 439.271 1117.29 435.568 1113.4C428.73 1106.25 423.224 1097.97 417.712 1086.58C415.896 1082.81 414.064 1079.04 412.218 1075.26C408.951 1068.55 405.673 1061.82 402.469 1055.08C399.815 1049.19 397.434 1043.22 395.343 1037.21C390.071 1022.77 384.092 1006.4 374.462 997.284C372.092 994.963 369.797 992.512 367.588 989.945C365.014 986.929 362.308 984.09 359.493 981.455C337.448 961.645 311.484 956.947 288.638 952.806L285.772 952.285C282.722 951.731 279.638 951.17 276.602 950.711C268.795 949.416 260.716 948.072 252.744 945.901C237.279 941.697 222.976 935.402 210.227 927.202C197.015 918.7 177.927 901.72 168.459 886.87C144.931 850.039 134.405 820.37 132.091 784.483C131.356 773.12 131.9 762.835 132.481 751.947L132.779 746.046C133.648 728.109 131.679 710.349 129.527 691.533C129.091 687.665 128.653 683.787 128.237 679.882C126.476 663.223 127.775 645.199 128.88 633.086L129.014 631.655C130.028 620.816 130.963 610.581 130.469 599.065C130.054 589.198 129.096 579.16 127.6 569.013Z" stroke="url(#paint5_linear_10_49)" stroke-opacity="0.6" stroke-width="2" stroke-miterlimit="10"/>
</g>
<defs>
<linearGradient id="paint0_linear_10_49" x1="746.141" y1="680.847" x2="219.021" y2="760.027" gradientUnits="userSpaceOnUse">
<stop stop-color="#00A86B"/>
<stop offset="1" stop-color="#00A86B" stop-opacity="0"/>
</linearGradient>
<linearGradient id="paint1_linear_10_49" x1="767.309" y1="688.858" x2="210.568" y2="772.488" gradientUnits="userSpaceOnUse">
<stop stop-color="#00A86B"/>
<stop offset="1" stop-color="#00A86B" stop-opacity="0"/>
</linearGradient>
<linearGradient id="paint2_linear_10_49" x1="783.65" y1="692.244" x2="191.229" y2="781.233" gradientUnits="userSpaceOnUse">
<stop stop-color="#00A86B"/>
<stop offset="1" stop-color="#00A86B" stop-opacity="0"/>
</linearGradient>
<linearGradient id="paint3_linear_10_49" x1="812.537" y1="692.08" x2="165.587" y2="789.26" gradientUnits="userSpaceOnUse">
<stop stop-color="#00A86B"/>
<stop offset="1" stop-color="#00A86B" stop-opacity="0"/>
</linearGradient>
<linearGradient id="paint4_linear_10_49" x1="834.091" y1="698.079" x2="147.421" y2="801.226" gradientUnits="userSpaceOnUse">
<stop stop-color="#00A86B"/>
<stop offset="1" stop-color="#00A86B" stop-opacity="0"/>
</linearGradient>
<linearGradient id="paint5_linear_10_49" x1="859.698" y1="703.566" x2="122.538" y2="814.297" gradientUnits="userSpaceOnUse">
<stop stop-color="#00A86B"/>
<stop offset="1" stop-color="#00A86B" stop-opacity="0"/>
</linearGradient>
</defs>
</svg>
