<svg width="144" height="63" viewBox="0 0 144 63" fill="none" xmlns="http://www.w3.org/2000/svg">
<path d="M10.817 35.4752L10.4179 36.7609H18.842L18.4429 35.4308C17.438 32.2386 16.6103 29.5635 15.9601 27.4058C15.3393 25.2185 14.9551 23.8441 14.8073 23.2825L14.63 22.3957C14.3639 23.8736 13.0929 28.2334 10.817 35.4752ZM6.82662 48.1112H0.974121L11.083 18.228H18.3099L28.4188 48.1112H22.3889L20.2608 41.3277H8.9548L6.82662 48.1112Z" fill="#00A86B"/>
<path d="M48.7619 47.1358C47.1953 48.0521 45.2445 48.5103 42.9094 48.5103C39.4511 48.5103 36.6431 47.4166 34.4854 45.2293C32.3572 43.042 31.2931 40.2784 31.2931 36.9383C31.3226 33.6573 32.3867 30.8937 34.4854 28.6472C36.6135 26.4008 39.5102 25.2776 43.1754 25.2776C45.3627 25.2776 47.2249 25.6914 48.7619 26.5191V31.2188C47.284 30.2729 45.5992 29.8 43.7075 29.8C41.6384 29.8 39.9684 30.4503 38.6974 31.7508C37.4264 33.0514 36.7761 34.7806 36.7466 36.9383C36.8057 39.0665 37.4412 40.7808 38.653 42.0814C39.8945 43.382 41.5645 44.0322 43.6631 44.0322C45.4957 44.0322 47.1953 43.5297 48.7619 42.5248V47.1358Z" fill="#00A86B"/>
<path d="M69.5882 47.1358C68.0216 48.0521 66.0708 48.5103 63.7357 48.5103C60.2774 48.5103 57.4694 47.4166 55.3117 45.2293C53.1835 43.042 52.1194 40.2784 52.1194 36.9383C52.149 33.6573 53.2131 30.8937 55.3117 28.6472C57.4399 26.4008 60.3366 25.2776 64.0018 25.2776C66.189 25.2776 68.0512 25.6914 69.5882 26.5191V31.2188C68.1103 30.2729 66.4255 29.8 64.5338 29.8C62.4647 29.8 60.7947 30.4503 59.5237 31.7508C58.2527 33.0514 57.6024 34.7806 57.5729 36.9383C57.632 39.0665 58.2675 40.7808 59.4794 42.0814C60.7208 43.382 62.3908 44.0322 64.4895 44.0322C66.3221 44.0322 68.0216 43.5297 69.5882 42.5248V47.1358Z" fill="#00A86B"/>
<path d="M91.3013 46.8698C89.7347 47.8452 87.4735 48.3329 84.5177 48.3329C80.9412 48.3329 78.1184 47.2688 76.0493 45.1407C73.9802 43.0125 72.9457 40.2636 72.9457 36.894C72.9457 33.3174 73.9211 30.5094 75.872 28.4699C77.8228 26.4304 80.2613 25.4106 83.1876 25.4106C86.1138 25.4106 88.4341 26.2974 90.1485 28.0709C91.8629 29.8444 92.7201 32.4307 92.7201 35.8299C92.7201 36.6575 92.6166 37.7216 92.4097 39.0221H78.3105C78.6948 40.6478 79.4928 41.8893 80.7047 42.7465C81.9462 43.6036 83.4832 44.0322 85.3158 44.0322C87.6804 44.0322 89.6756 43.4411 91.3013 42.2587V46.8698ZM83.3206 29.5783C82.0496 29.5783 80.9412 30.0513 79.9953 30.9971C79.079 31.9134 78.4879 33.2583 78.2218 35.0318H87.6656V34.3667C87.6065 32.9184 87.2075 31.7656 86.4685 30.9084C85.7591 30.0217 84.7098 29.5783 83.3206 29.5783Z" fill="white"/>
<path d="M112.286 41.638C112.286 43.7366 111.532 45.3771 110.025 46.5594C108.517 47.7418 106.507 48.3329 103.995 48.3329C101.216 48.3329 98.97 47.8748 97.2556 46.9585V42.0814C99.236 43.4115 101.379 44.0766 103.685 44.0766C104.66 44.0766 105.414 43.8992 105.946 43.5445C106.507 43.1603 106.788 42.643 106.788 41.9927C106.788 41.6085 106.699 41.2685 106.522 40.973C106.345 40.6478 106.005 40.3375 105.502 40.0419C105 39.7463 104.601 39.5394 104.305 39.4212C104.039 39.2734 103.492 39.0221 102.665 38.6674C102.576 38.6379 102.502 38.6083 102.443 38.5788C102.414 38.5492 102.354 38.5196 102.266 38.4901C102.177 38.4605 102.103 38.431 102.044 38.4014C98.7631 36.9235 97.1226 34.7953 97.1226 32.0169C97.1226 29.9478 97.9059 28.3221 99.4725 27.1398C101.039 25.9575 103.005 25.3663 105.369 25.3663C107.645 25.3663 109.537 25.6914 111.044 26.3417V31.0415C109.567 30.1547 107.719 29.7113 105.502 29.7113C104.586 29.7113 103.862 29.9182 103.33 30.3321C102.827 30.7163 102.576 31.2188 102.576 31.8395C102.576 32.076 102.606 32.2977 102.665 32.5046C102.753 32.7115 102.886 32.9184 103.064 33.1253C103.271 33.3026 103.463 33.4652 103.64 33.613C103.818 33.7608 104.069 33.9234 104.394 34.1007C104.719 34.2485 105 34.3815 105.236 34.4998C105.473 34.618 105.798 34.7658 106.212 34.9431C106.626 35.1205 106.951 35.2683 107.187 35.3865C108.754 36.155 109.995 37.0122 110.911 37.958C111.828 38.9039 112.286 40.1306 112.286 41.638Z" fill="white"/>
<path d="M131.207 41.638C131.207 43.7366 130.453 45.3771 128.946 46.5594C127.438 47.7418 125.429 48.3329 122.916 48.3329C120.138 48.3329 117.891 47.8748 116.177 46.9585V42.0814C118.157 43.4115 120.3 44.0766 122.606 44.0766C123.581 44.0766 124.335 43.8992 124.867 43.5445C125.429 43.1603 125.709 42.643 125.709 41.9927C125.709 41.6085 125.621 41.2685 125.443 40.973C125.266 40.6478 124.926 40.3375 124.424 40.0419C123.921 39.7463 123.522 39.5394 123.226 39.4212C122.96 39.2734 122.414 39.0221 121.586 38.6674C121.497 38.6379 121.423 38.6083 121.364 38.5788C121.335 38.5492 121.276 38.5196 121.187 38.4901C121.098 38.4605 121.024 38.431 120.965 38.4014C117.684 36.9235 116.044 34.7953 116.044 32.0169C116.044 29.9478 116.827 28.3221 118.394 27.1398C119.96 25.9575 121.926 25.3663 124.291 25.3663C126.566 25.3663 128.458 25.6914 129.966 26.3417V31.0415C128.488 30.1547 126.64 29.7113 124.424 29.7113C123.507 29.7113 122.783 29.9182 122.251 30.3321C121.749 30.7163 121.497 31.2188 121.497 31.8395C121.497 32.076 121.527 32.2977 121.586 32.5046C121.675 32.7115 121.808 32.9184 121.985 33.1253C122.192 33.3026 122.384 33.4652 122.561 33.613C122.739 33.7608 122.99 33.9234 123.315 34.1007C123.64 34.2485 123.921 34.3815 124.158 34.4998C124.394 34.618 124.719 34.7658 125.133 34.9431C125.547 35.1205 125.872 35.2683 126.108 35.3865C127.675 36.155 128.916 37.0122 129.833 37.958C130.749 38.9039 131.207 40.1306 131.207 41.638Z" fill="white"/>
<path fill-rule="evenodd" clip-rule="evenodd" d="M61.5681 8.33691H143.866V62.738H13.6333V59.7158H140.651V11.3592H61.5681V8.33691Z" fill="white"/>
<rect x="53.7271" y="0.0942383" width="6.59408" height="6.59408" fill="white"/>
<rect x="50.4297" y="9.98535" width="6.59408" height="6.59408" fill="white"/>
<rect x="43.8359" y="1.74268" width="6.59408" height="6.59408" fill="white"/>
<rect x="37.2417" y="1.74268" width="3.29704" height="3.29704" fill="white"/>
</svg>
