<svg width="31" height="30" viewBox="0 0 31 30" fill="none" xmlns="http://www.w3.org/2000/svg">
<path d="M14.735 0.494956C14.345 0.704956 0.964949 12.06 0.469949 12.585C-0.745051 13.875 0.739949 15.96 2.40495 15.315C2.68995 15.21 6.79995 11.775 14.7649 5.00996L15.5149 4.36496L21.365 9.32996C28.91 15.75 28.5199 15.45 29.24 15.45C29.6749 15.45 29.945 15.33 30.3349 14.985C31.01 14.4 31.16 13.71 30.785 12.99C30.5 12.495 16.6699 0.614956 16.115 0.404956C15.7099 0.254956 15.08 0.284956 14.735 0.494956Z" fill="#00A86B"/>
<path d="M20.1648 1.3649C19.4148 1.9499 19.5798 2.1749 22.4748 4.6199C23.9598 5.8799 25.2498 6.8999 25.3248 6.8999C25.4148 6.8999 25.4748 5.8649 25.4748 4.2149C25.4748 0.839902 25.6698 1.0499 22.6848 1.0499C20.7648 1.0499 20.5248 1.0799 20.1648 1.3649Z" fill="#00A86B"/>
<path d="M10.0849 10.02C7.1749 12.465 4.5499 14.685 4.2349 14.94L3.6499 15.405L3.6949 22.365C3.7399 28.575 3.7699 29.34 3.9949 29.505C4.1749 29.655 5.2849 29.7 8.3299 29.7H12.4249V24.93C12.4249 21.42 12.4699 20.115 12.6049 19.98C12.8749 19.71 18.1849 19.725 18.4099 19.995C18.5149 20.13 18.5899 21.735 18.6049 24.915L18.6499 29.625L22.6699 29.67C25.0849 29.685 26.7949 29.64 26.9599 29.565C27.2149 29.415 27.2449 28.98 27.3499 22.815C27.4249 18.105 27.4099 16.08 27.2899 15.72C27.1699 15.36 26.6899 14.865 25.6399 13.995C24.8299 13.32 22.2649 11.145 19.9249 9.16495C17.5849 7.16995 15.6049 5.54995 15.5149 5.54995C15.4249 5.54995 12.9799 7.55995 10.0849 10.02Z" fill="#00A86B"/>
</svg>
