<svg width="25" height="30" viewBox="0 0 25 30" fill="none" xmlns="http://www.w3.org/2000/svg">
<path d="M11.0525 0.0824032C8.72752 0.419903 6.60502 1.9049 5.45752 3.9899C4.61002 5.5424 4.21252 8.2274 4.61002 9.8249C5.22502 12.3449 7.43002 16.7624 10.88 22.4099C12.1775 24.5249 12.4175 24.8999 12.4925 24.8999C12.575 24.8999 12.935 24.3524 14.12 22.4174C17.7575 16.4474 19.8125 12.2699 20.4575 9.5249C20.675 8.6024 20.5025 6.6599 20.0975 5.3699C19.4675 3.3524 18.1475 1.7774 16.34 0.869904C15.605 0.502403 14.6075 0.179903 13.895 0.0824032C13.2275 -0.0150967 11.69 -0.0150967 11.0525 0.0824032ZM13.7 5.8049C14.57 6.2474 15.11 7.0649 15.185 8.0099C15.2825 9.4274 14.39 10.5899 12.965 10.8824C12.1775 11.0474 11.33 10.7999 10.685 10.2149C9.58252 9.2174 9.50752 7.4924 10.52 6.3824C11.0525 5.7824 11.675 5.5424 12.6125 5.5724C13.19 5.5874 13.355 5.6249 13.7 5.8049Z" fill="#00A86B"/>
<path d="M6.9501 19.9124C3.5001 20.4974 1.4601 21.5474 0.732598 23.0999C0.560098 23.4674 0.537598 23.6024 0.537598 24.3449C0.537598 25.1549 0.545098 25.1849 0.830098 25.7549C1.7976 27.7124 4.6476 29.1449 8.8626 29.7899C9.8676 29.9399 10.2576 29.9624 12.5001 29.9624C14.7426 29.9624 15.1326 29.9399 16.1376 29.7899C20.3526 29.1449 23.2026 27.7124 24.1701 25.7549C24.4551 25.1849 24.4626 25.1549 24.4626 24.3449C24.4626 23.6024 24.4401 23.4674 24.2676 23.0999C23.6676 21.8174 21.9651 20.7674 19.5876 20.2124C18.8826 20.0474 17.5926 19.8224 17.0151 19.7549C16.5501 19.7024 16.5351 19.7099 16.2801 19.9574C16.1376 20.0924 16.0251 20.2274 16.0251 20.2574C16.0251 20.2874 16.3026 20.3474 16.6476 20.3999C19.4451 20.7974 21.5526 21.7349 22.1151 22.8299C22.5576 23.6924 22.1001 24.6299 20.8101 25.4774C19.0251 26.6399 16.0326 27.2999 12.5001 27.2999C8.9676 27.2999 5.9751 26.6399 4.1901 25.4774C1.1376 23.4749 3.0351 21.1649 8.3601 20.3999C8.6976 20.3474 8.9751 20.2874 8.9751 20.2574C8.9751 20.2274 8.8626 20.0999 8.7276 19.9649C8.4276 19.6724 8.3451 19.6724 6.9501 19.9124Z" fill="#00A86B"/>
</svg>
