<svg width="42" height="44" viewBox="0 0 42 44" fill="none" xmlns="http://www.w3.org/2000/svg">
<path fill-rule="evenodd" clip-rule="evenodd" d="M3.7098 0.996425C2.40207 1.53073 1.14474 2.08409 0.915993 2.22641C0.518474 2.47359 0.5 3.38784 0.5 22.898V43.3111L0.987375 43.6507C1.42982 43.9591 1.61364 43.9367 2.98295 43.4067C6.6881 41.9727 6.03538 42.0128 8.70603 43.0537L11.0822 43.9796L12.5761 43.4096C16.3656 41.9638 15.6568 42.0069 18.2811 43.0626L20.6111 44L22.6256 43.1976L24.6398 42.3953L26.2016 42.9559C33.403 45.5412 40.8489 40.8173 41.4661 33.2722C41.9092 27.855 37.9623 22.6011 32.6255 21.5042L31.2889 21.2293V12.012C31.2889 4.97736 31.2213 2.71146 31.0038 2.44272C30.8471 2.24911 29.5211 1.62038 28.0574 1.04523L25.3961 0L23.1731 0.899959C21.9507 1.39499 20.8327 1.80015 20.6891 1.80015C20.5454 1.80015 19.4114 1.40067 18.1692 0.912443L15.9106 0.0249675L14.42 0.593542C10.6453 2.03393 11.3607 1.9924 8.6367 0.929014C7.30571 0.409465 6.1875 -0.00658319 6.15215 0.00476561C6.11657 0.0158874 5.01752 0.46235 3.7098 0.996425ZM8.6123 3.04852C9.70131 3.48545 10.8159 3.84293 11.0893 3.84293C11.3628 3.84293 12.4773 3.48545 13.5661 3.04852C14.6549 2.61159 15.6755 2.25455 15.8342 2.25501C15.9927 2.25546 17.1417 2.65539 18.3872 3.14339L20.6521 4.0311L21.8082 3.56897C22.4442 3.31476 23.5358 2.89576 24.2341 2.63814L25.5035 2.16944L27.37 2.91823L29.2363 3.66703V12.4637V21.2604L28.2725 21.3889C27.7424 21.4597 27.1919 21.4211 27.0491 21.3031C26.8918 21.1732 22.6219 21.112 16.2352 21.1476C6.46939 21.2023 5.66226 21.2363 5.42941 21.6038C5.24582 21.8934 5.24582 22.1086 5.42941 22.3982C5.66112 22.7639 6.39778 22.8002 14.7219 22.8547C19.6942 22.8874 23.7627 22.9568 23.7627 23.009C23.7627 23.061 23.1364 23.6983 22.3713 24.4249L20.9796 25.7461L13.3303 25.8596C6.36676 25.9629 5.65839 26.0087 5.42918 26.3703C5.24582 26.6599 5.24582 26.8751 5.42941 27.1647C5.65884 27.527 6.30609 27.5672 12.7834 27.6219C16.6895 27.655 19.884 27.7061 19.8822 27.7353C19.8803 27.7649 19.6867 28.4017 19.452 29.1508L19.0251 30.5126L12.3528 30.6261C6.32069 30.7287 5.65656 30.7777 5.42918 31.1368C5.24582 31.4264 5.24582 31.6416 5.42918 31.9312C5.65656 32.2901 6.31681 32.3393 12.2693 32.4419L18.8577 32.5554L19.0151 33.8099C19.3266 36.2953 20.2028 38.2162 21.7719 39.8543C22.2689 40.3731 22.6173 40.8913 22.5464 41.0057C22.4753 41.1201 22.0002 41.3507 21.4907 41.518C20.6095 41.8076 20.4614 41.7818 18.4531 40.9907C17.2918 40.5334 16.1113 40.1591 15.8297 40.1591C15.548 40.1591 14.4268 40.5166 13.338 40.9535C12.2493 41.3905 11.2421 41.7479 11.1 41.7479C10.9577 41.7479 9.92641 41.3905 8.8082 40.9535C7.69 40.5166 6.56107 40.1591 6.29948 40.1591C6.03812 40.1591 5.19268 40.4145 4.4209 40.7266C3.64913 41.0386 2.91248 41.294 2.78385 41.294C2.62535 41.294 2.56878 35.2099 2.60824 22.4407L2.66662 3.58736L4.26308 2.9348C5.14114 2.57573 6.03333 2.27566 6.24588 2.26817C6.45844 2.26045 7.52328 2.61159 8.6123 3.04852ZM10.3159 7.12319C9.91751 7.60098 10.1116 8.21472 10.765 8.54361C11.4458 8.88657 19.9937 8.95693 20.866 8.62691C21.5448 8.36997 21.7865 7.81388 21.4731 7.23123C21.2512 6.81836 20.9379 6.79362 15.9143 6.79362C11.5388 6.79362 10.5417 6.85241 10.3159 7.12319ZM5.56534 11.8302C5.19861 12.1952 5.21526 12.8053 5.60069 13.1235C5.82488 13.3085 8.86317 13.3639 16.466 13.3215C26.2317 13.2668 27.0389 13.2327 27.2717 12.8652C27.4553 12.5756 27.4553 12.3604 27.2717 12.0708C27.0389 11.7033 26.2301 11.6693 16.4306 11.6146C8.38446 11.5699 5.77493 11.6216 5.56534 11.8302ZM5.56534 16.5967C5.19861 16.9617 5.21526 17.5718 5.60069 17.89C5.82488 18.075 8.86317 18.1304 16.466 18.088C26.2317 18.0333 27.0389 17.9992 27.2717 17.6317C27.4553 17.3421 27.4553 17.1269 27.2717 16.8373C27.0389 16.4698 26.2301 16.4358 16.4306 16.3811C8.38446 16.3364 5.77493 16.3881 5.56534 16.5967ZM32.0189 23.3876C34.8713 23.9814 37.8092 26.3848 38.8463 28.9726C39.2707 30.0317 39.3738 30.7255 39.3788 32.5604C39.3847 34.6797 39.3339 34.9387 38.636 36.3498C34.5424 44.6235 22.4269 42.8565 21.0067 33.7786C20.035 27.5665 25.8294 22.0988 32.0189 23.3876ZM29.3633 24.3214C29.1681 24.5988 29.0082 25.0411 29.0082 25.3047C29.0082 25.6052 28.6964 25.9879 28.1707 26.3322C26.7754 27.2467 26.3854 27.9616 26.3854 29.6047C26.3854 30.7124 26.4961 31.1954 26.8626 31.6877C27.5924 32.6678 28.6677 33.2919 29.9232 33.4638C30.7554 33.5775 31.1839 33.7745 31.5172 34.1962C32.8039 35.8243 30.9687 37.8735 29.114 36.8795C28.2763 36.4303 27.6806 36.4735 27.3429 37.0073C27.0067 37.5384 27.2893 38.0598 28.2045 38.5971C28.7329 38.9076 29.0082 39.2385 29.0082 39.5635C29.0082 40.2292 29.6253 41.067 30.1159 41.067C30.7155 41.067 31.0608 40.6044 31.0608 39.8007C31.0608 39.2122 31.1876 39.027 31.7495 38.7954C33.7857 37.9561 34.5639 35.2206 33.3335 33.2277C32.8306 32.4129 31.3627 31.534 30.5052 31.534C29.7389 31.534 28.6513 30.9841 28.4656 30.5024C28.0597 29.4495 28.3803 28.4564 29.2753 27.9957C30.0156 27.6148 30.6079 27.7233 31.5422 28.4108C32.0178 28.7608 32.2435 28.8037 32.603 28.6122C33.6701 28.0438 33.3241 26.9071 31.8761 26.2235C31.1755 25.8925 31.0608 25.7291 31.0608 25.0625C31.0608 24.5279 30.9237 24.2138 30.6197 24.0518C29.9786 23.7104 29.7604 23.7571 29.3633 24.3214Z" fill="#3454D1"/>
</svg>
