<svg width="46" height="44" viewBox="0 0 46 44" fill="none" xmlns="http://www.w3.org/2000/svg">
<path fill-rule="evenodd" clip-rule="evenodd" d="M17.3808 0.0521573C17.1168 0.103359 16.7155 0.217321 16.4892 0.305346C15.8515 0.553158 1.25185 14.8852 0.841567 15.6662C0.411117 16.4855 0.38423 17.7208 0.779564 18.5176C0.938548 18.8381 2.03786 20.0293 3.43812 21.3983L5.82549 23.7326L6.56211 23.4968C6.96718 23.3671 7.32575 23.2374 7.35908 23.2087C7.39242 23.1798 6.27349 22.0239 4.87268 20.6398C2.1262 17.926 1.85541 17.533 2.14334 16.6784C2.24348 16.3812 3.70479 14.8565 6.7156 11.9078L11.1407 7.57402L19.0271 15.3012L26.9134 23.0284H28.5943C29.5188 23.0284 30.2751 23.0615 30.2751 23.102C30.2751 23.1424 30.0193 23.6323 29.7065 24.1904L29.138 25.2053L33.4102 29.3924C35.76 31.6953 37.6825 33.641 37.6825 33.716C37.6825 33.7911 35.7334 35.7561 33.3511 38.0828L29.0197 42.3132L28.8872 43.1027C28.8144 43.537 28.7862 43.9231 28.8247 43.9607C29.1159 44.246 30.3894 43.1045 37.3197 36.3464C45.3838 28.4827 45.4973 28.3539 45.5 27.0504C45.5008 26.7126 45.3981 26.139 45.2717 25.7759C45.0636 25.1773 43.8731 23.97 32.5242 12.8472C22.8254 3.34172 19.8727 0.522652 19.4136 0.32967C18.6815 0.0220546 18.0087 -0.0698676 17.3808 0.0521573ZM18.5722 1.6667C19.0085 1.82555 43.3502 25.5786 43.6583 26.1463C43.9097 26.6096 43.9106 27.3739 43.6601 27.8396C43.5527 28.0391 43.1198 28.5338 42.698 28.9389L41.931 29.6753L28.8672 16.9111C21.682 9.89075 15.688 4.00493 15.5468 3.83143L15.2903 3.51602L16.0269 2.7746C17.2239 1.57008 17.7168 1.35546 18.5722 1.6667ZM15.2385 4.42261C15.2852 4.54222 15.2622 4.5961 15.1845 4.54907C15.1099 4.50391 15.0489 4.41011 15.0489 4.3405C15.0489 4.14725 15.1472 4.18985 15.2385 4.42261ZM14.9688 4.70335C15.0411 4.88786 15.0209 4.89619 14.8463 4.75415C14.6083 4.56063 14.5835 4.48282 14.7599 4.48282C14.8272 4.48282 14.9212 4.58213 14.9688 4.70335ZM14.3173 5.11001C14.267 5.15919 14.2258 5.11888 14.2258 5.02037C14.2258 4.92186 14.267 4.88155 14.3173 4.93073C14.3675 4.98005 14.3675 5.06069 14.3173 5.11001ZM14.2434 5.38994C14.4175 5.60751 14.411 5.61034 14.1573 5.42797C14.0064 5.31952 13.8573 5.21375 13.8257 5.19279C13.7943 5.17183 13.8331 5.15476 13.9119 5.15476C13.9906 5.15476 14.1398 5.26052 14.2434 5.38994ZM13.0828 6.05073C13.0324 6.09991 12.9913 6.0596 12.9913 5.96109C12.9913 5.86258 13.0324 5.82227 13.0828 5.87145C13.133 5.92077 13.133 6.00141 13.0828 6.05073ZM12.7345 6.46505C12.905 6.67819 12.9002 6.68289 12.6826 6.51585C12.5505 6.41438 12.4426 6.30848 12.4426 6.28067C12.4426 6.17006 12.5552 6.24116 12.7345 6.46505ZM12.374 6.49864C12.4206 6.57256 12.4279 6.63303 12.3902 6.63303C12.3525 6.63303 12.2835 6.57256 12.2368 6.49864C12.1902 6.42473 12.1829 6.36426 12.2206 6.36426C12.2584 6.36426 12.3274 6.42473 12.374 6.49864ZM8.19022 24.457C7.59489 24.5597 6.68131 24.9268 6.68131 25.0634C6.68131 25.1355 6.61958 25.1572 6.54414 25.1115C6.46869 25.0658 6.40203 25.1378 6.39613 25.2715C6.39009 25.4056 6.35484 25.4411 6.31739 25.3505C6.22891 25.1366 6.03029 25.2868 5.21753 26.1825C4.71095 26.7407 4.23949 27.807 3.9875 28.9647C3.69299 30.318 3.80136 32.9594 4.20245 34.2061C4.98352 36.6333 6.79805 37.9449 9.14686 37.7803C12.1001 37.5732 13.725 35.1992 13.725 31.0918C13.725 28.7236 13.2434 27.0937 12.1682 25.8231C11.4001 24.9153 9.43877 24.2418 8.19022 24.457ZM17.9295 24.4926C16.2637 24.837 15.1571 26.1405 14.9597 27.9911C14.6599 30.8015 16.7696 32.8832 19.3452 32.3185C21.0631 31.9418 22.0569 30.6081 22.1539 28.5493C22.2184 27.1801 21.9048 26.1756 21.1873 25.452C20.4135 24.6719 19.0313 24.2648 17.9295 24.4926ZM26.0507 24.8091C25.5539 25.6164 18.7526 37.6773 18.7526 37.7511C18.7526 37.7912 19.1265 37.806 19.5834 37.784L20.4143 37.744L24.1619 31.159C26.223 27.5372 27.8825 24.5285 27.8496 24.4731C27.8167 24.4178 27.459 24.3723 27.0547 24.3723C26.3719 24.3723 26.3004 24.4034 26.0507 24.8091ZM19.148 26.3386C19.6254 26.6661 19.8504 27.3402 19.8469 28.4333C19.8419 30.1017 19.2819 30.8816 18.2682 30.6324C17.5088 30.4456 17.0586 28.8887 17.37 27.5258C17.6457 26.3185 18.3925 25.82 19.148 26.3386ZM9.59611 27.0575C9.78609 27.204 10.0382 27.5603 10.1562 27.8492C10.7282 29.2497 10.784 32.3624 10.2689 34.1369C10.0692 34.8253 9.30475 35.5266 8.75414 35.5266C8.32081 35.5266 7.77431 35.0928 7.46183 34.5008C6.75401 33.16 6.78584 29.1119 7.51505 27.7116C7.99132 26.7968 8.8909 26.5141 9.59611 27.0575ZM27.3945 29.8703C25.5806 30.2451 24.4643 31.7599 24.4643 33.8467C24.4643 35.0853 24.7894 35.9722 25.5154 36.7143C27.11 38.3443 29.8834 38.0595 31.0267 36.1483C31.5299 35.3071 31.658 34.8018 31.6611 33.6451C31.6659 31.9652 31.0644 30.8218 29.8659 30.2319C29.1352 29.8725 28.1101 29.7223 27.3945 29.8703ZM29.12 32.2386C29.4052 32.9074 29.378 34.7978 29.0746 35.3907C28.6103 36.2988 27.5868 36.2883 27.1089 35.3706C26.8655 34.9033 26.8274 34.6295 26.8672 33.6353C26.9178 32.368 27.1421 31.8689 27.8097 31.5377C28.2557 31.3163 28.8658 31.6428 29.12 32.2386ZM15.0489 32.673C15.0489 32.8117 18.1812 35.8655 18.2446 35.7886C18.2722 35.7555 18.4524 35.4457 18.6452 35.1003L18.9956 34.4724L18.634 34.1392C18.4136 33.936 17.9705 33.7458 17.4991 33.6519C17.0737 33.5672 16.3718 33.2892 15.9393 33.0339C15.0928 32.5346 15.0489 32.5168 15.0489 32.673ZM21.7269 38.2172C21.5156 38.5854 21.3812 38.9474 21.4281 39.0218C21.475 39.0962 21.7102 39.2557 21.9505 39.3764C22.191 39.497 22.4228 39.6488 22.4657 39.7136C22.5403 39.8262 23.6874 39.2989 23.6897 39.1509C23.6903 39.1115 23.3354 38.7348 22.901 38.3137L22.111 37.5479L21.7269 38.2172ZM2.44732 39.0472C2.36954 39.439 2.12812 40.667 1.91083 41.7757L1.51564 43.7915L2.05953 43.8337C2.3587 43.8569 2.64979 43.8267 2.70644 43.7665C2.76323 43.7063 2.97022 42.75 3.16665 41.6413C3.36295 40.5326 3.56185 39.444 3.60849 39.2223C3.77406 38.436 3.76473 38.4182 3.16035 38.3752L2.58861 38.3344L2.44732 39.0472ZM10.0104 38.921C9.49995 39.0414 9.4197 39.1121 9.34357 39.5096C9.28404 39.8206 9.1813 39.9614 9.01394 39.9614C8.87787 39.9614 8.73452 40.0945 8.68816 40.2638C8.56539 40.7129 8.58034 40.7677 8.82561 40.7677C9.01189 40.7677 9.03397 40.8636 8.95756 41.3389C8.90709 41.653 8.82958 42.2792 8.78514 42.7306C8.71107 43.4847 8.73068 43.5689 9.02656 43.7721C9.40653 44.0328 10.3698 44.0687 10.4464 43.8251C10.6883 43.056 10.6689 42.918 10.319 42.918C9.91984 42.918 9.88911 42.648 10.1584 41.5069C10.305 40.8851 10.35 40.8318 10.7625 40.7929C11.0248 40.768 11.208 40.6758 11.208 40.5686C11.208 40.4685 11.2455 40.2909 11.2913 40.174C11.3566 40.0072 11.2792 39.9614 10.9327 39.9614H10.491L10.5836 39.3567C10.6345 39.024 10.6569 38.7592 10.6334 38.768C10.61 38.7769 10.3296 38.8457 10.0104 38.921ZM27.2961 38.9805C27.0765 39.0222 26.9675 39.1664 26.9037 39.4998C26.8422 39.8206 26.7407 39.9614 26.5709 39.9614C26.3278 39.9614 26.1599 40.213 26.1599 40.5772C26.1599 40.682 26.2595 40.7677 26.3812 40.7677C26.5562 40.7677 26.5856 40.8593 26.5211 41.2045C26.4762 41.4448 26.3993 42.0706 26.35 42.5954C26.2658 43.4941 26.2794 43.5625 26.5838 43.7713C26.9646 44.0327 27.9278 44.0691 28.0046 43.8251C28.2498 43.0454 28.2293 42.918 27.8583 42.918C27.4978 42.918 27.4948 42.9102 27.5816 42.187C27.7178 41.0517 27.8687 40.7677 28.3358 40.7677C28.6746 40.7677 28.7443 40.7067 28.7954 40.3646C28.851 39.9942 28.8229 39.9614 28.4506 39.9614C28.0546 39.9614 28.0473 39.949 28.133 39.4239C28.2274 38.846 28.1691 38.8151 27.2961 38.9805ZM6.26979 39.9223C6.15662 39.9632 5.95608 40.0887 5.82398 40.2013C5.60779 40.3858 5.58392 40.3841 5.58392 40.1838C5.58392 40.0141 5.45457 39.9614 5.03784 39.9614C4.41713 39.9614 4.50711 39.7687 4.07776 42.0177C3.70808 43.9538 3.69175 43.8587 4.396 43.8587H4.99134L5.16623 42.8844C5.3879 41.6488 5.61863 41.0997 5.99983 40.8998C6.24277 40.7724 6.34208 40.781 6.5082 40.9437C6.69187 41.1236 6.69009 41.2764 6.49188 42.3343C6.19284 43.9304 6.17542 43.8587 6.8632 43.8587H7.45661L7.68844 42.5484C7.9883 40.8537 7.98007 40.4275 7.64152 40.0958C7.37582 39.8355 6.73577 39.7545 6.26979 39.9223ZM12.6484 40.0785C11.7519 40.6238 11.3448 41.3144 11.3458 42.2883C11.3469 43.4853 12.1909 44.1053 13.5868 43.9343C14.5165 43.8205 14.6158 43.745 14.5345 43.2123C14.4821 42.869 14.4157 42.7868 14.2434 42.8521C13.7525 43.0382 13.3158 43.0651 12.957 42.9311C12.3029 42.6868 12.4944 42.4246 13.4001 42.3242C14.4498 42.2079 15.0489 41.7641 15.0489 41.1028C15.0489 40.4703 14.9339 40.2483 14.4903 40.0236C13.9575 39.7536 13.1422 39.778 12.6484 40.0785ZM17.3667 40.1952C16.9372 40.5494 16.9232 40.5519 17.0005 40.2624C17.0733 39.9896 17.0319 39.9614 16.5596 39.9614C16.0107 39.9614 15.8719 40.1108 15.8719 40.7016C15.8719 40.875 15.7485 41.6304 15.5976 42.3804C15.4467 43.1304 15.3232 43.7698 15.3232 43.8014C15.3232 43.8329 15.5966 43.8587 15.9308 43.8587H16.5383L16.6933 43.0859C16.9995 41.5583 17.3002 41.0365 17.8741 41.0365C18.2472 41.0365 18.2873 40.984 18.4125 40.3299C18.5032 39.8565 18.4884 39.827 18.1611 39.827C17.9699 39.827 17.6124 39.9927 17.3667 40.1952ZM19.9185 40.0168C18.3469 40.7011 17.9716 43.1324 19.3394 43.7684C19.893 44.0257 20.5165 44.0529 21.256 43.8516C21.6932 43.7326 21.7704 43.6555 21.7704 43.3372C21.7704 42.8311 21.7169 42.8025 21.0471 42.9497C20.3977 43.0923 19.7128 42.9147 19.7128 42.6038C19.7128 42.4777 19.9604 42.3889 20.479 42.3292C21.4545 42.2169 21.963 41.9576 22.1705 41.4667C22.6645 40.2982 21.2959 39.417 19.9185 40.0168ZM23.6353 40.0322C23.0897 40.311 22.8772 40.6203 22.8722 41.1434C22.8678 41.5932 23.1148 41.907 23.8746 42.4164C24.5636 42.8783 23.8667 43.2644 22.9561 42.9254C22.6505 42.8115 22.5996 42.8415 22.4671 43.2142C22.3856 43.4429 22.3191 43.6488 22.3191 43.6717C22.3191 43.6947 22.5598 43.7842 22.854 43.8705C24.4207 44.3304 25.9514 43.2366 25.331 42.1009C25.2523 41.9568 24.9436 41.6879 24.6451 41.5033C23.8743 41.0264 23.9177 40.7363 24.7523 40.7866C25.3543 40.8228 25.4121 40.7984 25.5361 40.4529C25.6392 40.1654 25.6239 40.0514 25.4691 39.9555C25.1562 39.7617 24.0764 39.8069 23.6353 40.0322ZM13.8958 40.9226C14.0311 41.137 13.5667 41.4397 13.1023 41.4397C12.6689 41.4397 12.6141 41.2909 12.9324 40.9789C13.1842 40.7324 13.7548 40.6989 13.8958 40.9226ZM21.0845 40.9424C21.0845 41.242 20.7738 41.4397 20.3026 41.4397C19.7915 41.4397 19.752 41.3652 20.077 41.0135C20.3386 40.7304 21.0845 40.6777 21.0845 40.9424Z" fill="white"/>
</svg>
