<svg width="40" height="44" viewBox="0 0 40 44" fill="none" xmlns="http://www.w3.org/2000/svg">
<path fill-rule="evenodd" clip-rule="evenodd" d="M19.465 0.121444C18.9715 0.305104 0.5 18.5747 0.5 18.8791C0.5 19.1948 0.855593 19.6178 1.12091 19.6178C1.21213 19.6178 1.79246 19.1427 2.41053 18.5618L3.5344 17.5058V28.651V39.7962H2.32481C1.52051 39.7962 1.04164 39.8836 0.89542 40.0574C0.752424 40.227 0.694581 40.9624 0.730045 42.1593L0.784475 44H20.0339H39.2834L39.3378 42.1593C39.3733 40.9624 39.3154 40.227 39.1724 40.0574C39.0262 39.8836 38.5474 39.7962 37.7431 39.7962H36.5335V28.6385V17.481L37.6744 18.5932C38.6266 19.5214 38.8698 19.6718 39.1442 19.5026C39.8829 19.0463 39.621 18.6317 36.9183 15.977L34.2577 13.3639V8.66548C34.2577 4.12423 34.2704 3.96392 34.637 3.86938C34.9687 3.784 35.0163 3.61454 35.0163 2.52117C35.0163 1.34803 34.9763 1.23107 34.3715 0.635244L33.7267 0H31.0727H28.4187L27.8297 0.542013C27.2782 1.04946 27.2406 1.16848 27.2406 2.40384C27.2406 3.53233 27.2956 3.75261 27.6199 3.92357C27.952 4.09863 27.9992 4.3148 27.9992 5.65648V7.18947L24.4433 3.69189C20.8809 0.187957 20.3362 -0.202717 19.465 0.121444ZM27.5763 8.64493L35.022 15.9818L35.0665 27.8891L35.1111 39.7962H19.9865H4.86195V27.9797V16.163L12.3996 8.73554C16.5453 4.65036 19.9808 1.30786 20.0339 1.30786C20.087 1.30786 23.4812 4.60944 27.5763 8.64493ZM33.6527 2.10191L33.7117 2.80255H31.1398H28.5682V2.17982C28.5682 1.83716 28.6275 1.49862 28.7 1.42706C28.7724 1.35569 29.9033 1.32056 31.2128 1.34933L33.5939 1.40127L33.6527 2.10191ZM32.8865 8.06536L32.9379 12.051L31.1322 10.2797L29.3268 8.50853V6.26276L29.3266 4.01698L31.081 4.04837L32.8353 4.07976L32.8865 8.06536ZM14.3251 14.0656C12.8699 15.0286 12.905 17.16 14.3919 18.1065C15.0774 18.5431 15.103 18.5981 15.103 19.6296V20.6996L14.297 20.8239C13.8536 20.8921 12.9228 20.9916 12.2283 21.0449C10.9994 21.1392 10.959 21.1282 10.7111 20.6301C9.82982 18.8585 6.95132 18.9269 6.19006 20.7375C5.34423 22.749 7.5599 24.9068 9.52676 23.9874C9.90151 23.8121 10.3921 23.3889 10.6169 23.0468C11.0015 22.4617 11.0899 22.4249 12.1161 22.4226L13.2065 22.4204V25.9703V29.5202L12.1161 29.519C11.1109 29.5179 11.0009 29.4753 10.7119 28.9744C10.0589 27.8441 8.621 27.3841 7.45029 27.9315C5.55588 28.8171 5.52894 31.4199 7.40496 32.3145C7.84533 32.5245 8.35226 32.6964 8.53129 32.6964C9.23812 32.6964 10.1879 32.1308 10.5797 31.4769L10.9854 30.7994L12.2382 30.8932C12.9272 30.9448 13.8111 31.0446 14.2022 31.1148L14.9134 31.2426V32.3248C14.9134 33.3662 14.8882 33.4215 14.2403 33.798C12.8826 34.5872 12.6751 36.3423 13.8039 37.4897C14.8538 38.5569 16.2119 38.5543 17.2992 37.4831C18.4629 36.3367 18.2806 34.5924 16.914 33.798C16.2639 33.4202 16.2409 33.3692 16.2409 32.3042V31.2017H19.8443H23.4476V32.3179C23.4476 33.3684 23.4143 33.4512 22.8804 33.7231C21.759 34.2944 21.3017 35.6977 21.8766 36.8031C22.3016 37.6199 23.3181 38.3015 24.1114 38.3015C25.471 38.3015 26.8367 36.7038 26.5888 35.4029C26.4509 34.6783 25.7018 33.7083 25.1461 33.5345C24.8328 33.4366 24.7752 33.2463 24.7752 32.3102V31.2017H25.5226C25.9337 31.2017 26.3227 31.1176 26.3872 31.0149C26.4517 30.9121 27.091 30.828 27.8081 30.828C28.9353 30.828 29.1275 30.8775 29.2293 31.1935C29.4057 31.7409 30.3903 32.4789 31.1258 32.6147C31.9853 32.7737 33.0693 32.2482 33.6555 31.3885C34.7866 29.73 33.1537 27.3587 31.1372 27.7312C30.3918 27.8691 29.4066 28.6041 29.2293 29.1547C29.1299 29.4634 28.9367 29.5202 27.9865 29.5202H26.8613V25.9703V22.4204L27.9518 22.4275C28.9974 22.4342 29.0628 22.4637 29.5398 23.1438C30.238 24.1398 31.4499 24.4846 32.489 23.9827C32.8854 23.7914 33.4103 23.3406 33.6555 22.9809C34.7866 21.3223 33.1537 18.951 31.1372 19.3236C30.3841 19.4628 29.4062 20.1981 29.2246 20.7616C29.1132 21.1075 28.9881 21.1331 27.8395 21.0449C27.145 20.9916 26.2142 20.8921 25.7708 20.8239L24.9648 20.6996V19.6135C24.9648 18.5777 24.995 18.509 25.6159 18.131C26.0491 17.8672 26.3749 17.4558 26.5897 16.9012C26.8941 16.1163 26.8941 16.0196 26.5897 15.2346C25.7545 13.0799 22.7038 13.1096 21.9363 15.2801C21.5462 16.3829 21.927 17.4705 22.9261 18.1065C23.6141 18.5446 23.6373 18.5949 23.6373 19.6492V20.7389H20.0339H16.4306L16.4349 19.5711C16.4391 18.443 16.46 18.3933 17.0513 18.1063C17.4759 17.9004 17.7743 17.5464 18.0254 16.9502C18.3728 16.126 18.3741 16.0565 18.0601 15.2462C17.4683 13.72 15.6946 13.1593 14.3251 14.0656ZM16.6202 15.3206C16.8289 15.5261 16.9995 15.8624 16.9995 16.0679C16.9995 16.6144 16.3248 17.189 15.6828 17.189C15.0882 17.189 14.5341 16.6281 14.5341 16.0263C14.5341 15.5446 15.2166 14.9469 15.7668 14.9469C16.0276 14.9469 16.4116 15.1151 16.6202 15.3206ZM25.0337 15.2283C25.8531 16.0356 25.4259 17.189 24.3075 17.189C23.2115 17.189 22.6936 16.0635 23.4476 15.3206C23.8971 14.8778 24.6345 14.8348 25.0337 15.2283ZM9.1816 20.8429C9.77634 21.2532 9.7642 22.3077 9.16055 22.6975C8.8059 22.9263 8.59862 22.942 8.11634 22.7765C7.15861 22.4477 7.02433 21.2284 7.89805 20.793C8.51233 20.4868 8.67486 20.4932 9.1816 20.8429ZM32.3253 20.933C32.8875 21.4488 32.8533 22.1188 32.2407 22.5936C31.5933 23.0954 31.3084 23.0818 30.7406 22.5222C30.1726 21.9628 30.1588 21.6822 30.6682 21.0443C31.1387 20.4549 31.759 20.4132 32.3253 20.933ZM25.5338 25.9703V29.8938H20.0339H14.5341V25.9703V22.0467H20.0339H25.5338V25.9703ZM16.6328 23.3422C16.305 23.6651 16.2698 23.9523 16.3009 26.0422C16.3251 27.6697 16.4105 28.4548 16.5817 28.6235C16.7572 28.7966 17.6864 28.8832 19.8168 28.9253C23.7442 29.003 23.6215 29.0918 23.6432 26.1571C23.6517 24.9754 23.654 23.8749 23.6481 23.7116C23.6276 23.1492 22.7493 22.9809 19.8354 22.9809C17.2846 22.9809 16.9627 23.0171 16.6328 23.3422ZM22.3097 26.0155V27.6634L19.9865 27.6109L17.6633 27.5584L17.607 26.1747C17.5761 25.4135 17.5867 24.6989 17.6307 24.5866C17.6821 24.4547 18.5274 24.3796 20.0102 24.3751L22.3097 24.3678V26.0155ZM9.1816 29.2506C10.0595 29.8561 9.51576 31.3885 8.423 31.3885C7.93408 31.3885 7.32739 30.7161 7.32739 30.1741C7.32739 29.6321 7.93408 28.9597 8.423 28.9597C8.60848 28.9597 8.94985 29.0906 9.1816 29.2506ZM32.3016 29.3658C32.9796 29.9934 32.8717 30.7434 32.0418 31.1737C31.4497 31.4806 31.2644 31.4461 30.7406 30.9298C30.1726 30.3705 30.1588 30.0898 30.6682 29.452C31.1459 28.8535 31.7154 28.8235 32.3016 29.3658ZM16.607 35.3441C17.159 36.3177 16.0784 37.3212 14.9995 36.8369C14.3898 36.5632 14.2153 35.8145 14.6194 35.2067C15.0636 34.539 16.1947 34.6173 16.607 35.3441ZM25.0762 35.2174C25.4786 35.8222 25.2918 36.5663 24.6675 36.8466C23.5612 37.343 22.4958 36.196 23.1497 35.2127C23.5815 34.5634 24.643 34.5661 25.0762 35.2174ZM38.0507 41.9915V42.7856H20.0339H2.0172V41.9915V41.1975H20.0339H38.0507V41.9915Z" fill="#3454D1"/>
</svg>
